<?xml version="1.0" standalone="no"?>
<!DOCTYPE svg PUBLIC "-//W3C//DTD SVG 20010904//EN"
 "http://www.w3.org/TR/2001/REC-SVG-20010904/DTD/svg10.dtd">
<svg version="1.0" xmlns="http://www.w3.org/2000/svg"
 width="1613.000000pt" height="1210.000000pt" viewBox="0 0 1613.000000 1210.000000"
 preserveAspectRatio="xMidYMid meet">
<g transform="translate(0.000000,1210.000000) scale(0.100000,-0.100000)"
fill="#000000" stroke="none">
<path d="M7795 10436 c-73 -24 -138 -70 -179 -128 -23 -30 -86 -116 -142 -189
-111 -148 -277 -381 -317 -446 -49 -77 -119 -215 -167 -327 -26 -61 -73 -149
-103 -195 -128 -190 -217 -435 -247 -682 -18 -153 -31 -490 -25 -674 14 -438
46 -681 180 -1392 13 -72 29 -176 34 -230 5 -54 17 -122 26 -152 12 -38 16
-82 13 -152 l-3 -98 -145 -67 c-80 -37 -176 -80 -215 -96 -157 -65 -266 -115
-383 -175 -143 -73 -188 -102 -211 -136 -9 -14 -61 -62 -116 -108 -112 -93
-168 -151 -231 -240 -41 -58 -42 -60 -57 -39 -14 21 -15 21 -20 -7 -6 -33 2
-51 14 -32 14 23 16 5 2 -21 -9 -19 -13 -20 -13 -7 0 9 -4 17 -9 17 -13 0 -23
-34 -16 -52 3 -8 -14 -55 -38 -104 -25 -49 -47 -96 -50 -104 -3 -8 -6 0 -6 18
-1 17 -5 32 -11 32 -16 0 -24 -51 -13 -80 6 -15 7 -34 3 -41 -4 -8 -21 -52
-36 -99 -16 -46 -30 -77 -32 -67 -2 10 2 24 8 32 9 11 6 14 -19 13 -37 -1 -39
-9 -46 -153 -4 -92 -3 -104 7 -75 15 45 21 19 9 -40 -6 -31 -9 -37 -11 -20
l-2 25 -8 -25 c-12 -37 -12 -92 0 -85 12 8 13 -18 1 -30 -5 -6 -12 -39 -15
-75 -4 -43 -3 -58 3 -45 8 16 10 10 10 -26 1 -25 -5 -54 -14 -65 -19 -24 -19
-42 0 -60 18 -18 12 -140 -12 -249 -9 -38 -18 -88 -20 -110 -3 -22 -9 -44 -13
-50 -4 -5 -10 -22 -14 -37 -3 -15 -17 -38 -31 -52 -15 -15 -25 -36 -24 -53 l0
-28 11 25 c6 14 10 31 9 38 -1 6 2 12 7 12 19 0 20 -28 1 -59 -10 -17 -19 -39
-19 -47 0 -9 -11 -29 -25 -46 -28 -33 -34 -58 -10 -38 13 11 14 10 10 -3 -4
-8 -16 -18 -28 -21 -15 -4 -32 -28 -55 -78 -42 -93 -37 -124 7 -36 19 37 41
73 50 80 14 12 14 11 3 -4 -13 -16 -32 -75 -34 -106 -1 -7 -14 -20 -29 -29
-24 -15 -26 -18 -12 -28 14 -10 12 -15 -11 -38 -29 -30 -51 -36 -42 -12 3 8
-4 23 -15 34 -18 17 -19 19 -3 25 9 4 14 9 11 13 -3 3 0 18 9 34 8 17 10 29 4
29 -5 0 -10 -6 -10 -12 0 -7 -5 -5 -11 5 -11 18 -5 37 13 37 23 0 79 79 104
148 24 68 55 113 41 63 -3 -15 -1 -21 6 -18 13 5 13 13 -1 70 -6 20 -6 37 -2
37 21 0 57 109 64 190 l7 84 -25 -23 c-19 -18 -23 -28 -15 -37 8 -9 5 -11 -10
-7 -12 3 -21 11 -21 18 0 21 -31 27 -45 8 -7 -10 -27 -18 -44 -19 -35 -2 -61
-19 -61 -41 0 -11 7 -14 20 -10 18 4 20 2 14 -16 -8 -27 -37 -52 -42 -37 -2 6
4 18 14 25 18 13 17 14 -9 15 -25 0 -28 -3 -25 -27 2 -22 8 -28 26 -28 23 -1
45 -22 36 -36 -2 -4 7 -14 21 -23 30 -19 58 -22 33 -2 -40 30 -46 106 -7 106
23 0 25 -15 4 -24 -22 -8 -18 -24 8 -28 15 -2 21 -9 20 -23 -1 -11 2 -22 6
-25 12 -8 21 -80 10 -80 -5 0 -8 -5 -7 -11 2 -6 -3 -14 -9 -16 -15 -6 -17 13
-3 22 15 9 12 25 -5 25 -8 0 -15 -8 -15 -18 0 -10 -5 -23 -11 -29 -9 -9 -8
-16 4 -27 12 -12 17 -13 20 -3 4 7 6 8 6 1 1 -6 -6 -17 -14 -24 -12 -10 -15
-10 -15 4 0 18 -11 21 -27 5 -7 -7 -12 0 -17 25 -9 46 -21 45 -46 -3 -10 -22
-24 -41 -30 -43 -6 -2 -12 -13 -13 -25 0 -13 -6 -24 -12 -27 -6 -2 -17 -23
-25 -46 -11 -34 -11 -48 -1 -76 21 -59 -2 -146 -55 -204 -13 -14 -32 -36 -43
-50 -10 -14 -22 -22 -26 -18 -4 4 3 17 15 30 39 41 81 108 69 108 -9 0 -7 4 3
12 22 18 29 55 12 62 -10 4 -11 11 -4 31 12 32 13 45 2 45 -7 0 -29 -51 -114
-273 -12 -31 -33 -50 -24 -21 3 11 7 30 10 44 7 38 51 146 95 235 23 44 41 85
41 92 0 7 6 16 13 20 8 4 24 28 38 53 27 50 69 111 84 122 16 12 -31 9 -58 -3
-25 -11 -47 -59 -47 -102 0 -14 -3 -28 -8 -30 -9 -6 -8 85 1 100 4 7 3 14 -2
17 -5 3 -7 15 -4 26 3 11 -1 28 -8 37 -8 10 -9 14 -2 10 15 -9 27 26 18 53 -9
27 -33 25 -33 -2 -1 -13 -4 -38 -8 -57 -5 -24 -3 -32 5 -27 6 4 11 2 11 -4 0
-7 -9 -14 -20 -17 -10 -3 -24 -17 -29 -32 -10 -24 -11 -23 -5 9 3 19 8 55 11
80 7 59 29 92 57 85 20 -5 20 -5 -2 7 -17 11 -20 16 -10 26 9 9 9 15 -1 25
-10 9 -15 9 -18 0 -2 -7 -10 -10 -18 -7 -22 9 -30 -18 -9 -33 15 -11 16 -15 5
-22 -7 -5 -21 -7 -30 -4 -12 3 -22 -7 -34 -32 -20 -43 -21 -59 -4 -74 10 -8
17 -7 26 2 10 10 11 6 6 -18 -4 -16 -13 -35 -20 -40 -9 -8 -10 -16 -3 -29 17
-31 1 -28 -22 3 -16 23 -17 29 -6 25 21 -8 32 22 16 41 -16 19 -30 19 -30 0 0
-9 -9 -35 -20 -57 -11 -23 -20 -49 -20 -59 0 -9 -9 -28 -20 -42 -11 -14 -20
-39 -20 -56 0 -17 -4 -31 -10 -31 -5 0 -10 -12 -10 -27 0 -20 -3 -24 -11 -16
-8 8 -8 17 1 33 6 12 9 32 6 45 -7 28 3 85 15 85 5 0 9 -8 9 -17 0 -15 2 -15
14 2 14 20 11 49 -5 39 -10 -6 -12 36 -3 61 5 13 8 14 15 3 14 -23 24 -4 64
130 4 15 2 22 -8 22 -20 0 -47 -33 -47 -57 0 -22 -23 -47 -33 -37 -3 4 -5 -16
-5 -43 1 -27 -4 -58 -10 -68 -11 -19 -11 -19 -12 2 0 12 -3 29 -7 39 -3 10 -2
15 3 12 5 -3 10 14 12 38 1 24 -2 44 -7 44 -21 0 -40 -13 -34 -23 4 -6 1 -7
-7 -2 -10 6 -6 13 13 27 29 21 36 65 15 86 -7 7 -9 12 -5 12 4 0 16 -14 26
-31 18 -29 20 -30 29 -13 10 19 12 26 12 44 0 6 7 10 15 10 8 0 14 -6 13 -12
-2 -7 4 -13 12 -13 8 0 14 7 13 15 -2 9 7 20 20 25 18 8 22 19 25 68 2 46 0
57 -13 57 -23 0 -18 16 11 35 19 12 23 20 15 28 -13 13 -63 -34 -57 -54 2 -8
7 -39 10 -69 5 -48 4 -53 -7 -38 -8 10 -17 14 -22 10 -4 -4 -4 3 -1 16 5 15 3
24 -8 28 -8 3 -12 12 -9 20 3 8 0 14 -6 14 -14 0 -30 -31 -24 -48 3 -7 -1 -10
-11 -6 -12 4 -14 0 -10 -20 4 -21 1 -26 -16 -26 -12 0 -19 3 -16 8 7 12 -21
45 -33 38 -6 -4 -7 -14 -4 -24 5 -15 4 -15 -9 1 -12 17 -15 11 -27 -60 -7 -43
-17 -85 -22 -93 -5 -8 -17 -31 -25 -50 -9 -19 -25 -47 -35 -62 -14 -19 -16
-27 -7 -30 8 -3 5 -15 -11 -39 l-23 -34 7 54 c3 30 11 63 16 73 12 22 8 153
-6 182 -7 17 -5 19 23 13 28 -6 32 -4 32 16 0 12 7 35 15 51 17 33 10 53 -12
35 -9 -8 -17 -9 -21 -3 -4 6 -15 13 -24 17 -10 4 -15 13 -11 25 2 11 0 23 -6
26 -6 4 -11 2 -11 -3 0 -6 -5 -11 -12 -11 -6 0 -4 7 5 18 21 23 21 32 1 32 -9
0 -27 9 -41 20 -36 28 -47 25 -39 -10 5 -29 4 -30 -30 -30 -29 0 -35 -3 -30
-16 3 -9 6 -18 6 -20 0 -2 8 -4 18 -4 16 -1 16 -1 -1 -14 -9 -7 -17 -21 -17
-30 0 -24 -19 -19 -32 9 -12 27 -28 33 -28 11 0 -26 -27 -39 -60 -28 -33 12
-37 6 -15 -24 8 -10 15 -29 15 -42 0 -13 12 -35 27 -50 21 -21 27 -36 26 -67
0 -32 -8 -128 -12 -167 -1 -5 -6 -8 -11 -8 -6 0 -8 10 -6 23 3 12 8 55 11 94
5 64 3 75 -15 93 -11 11 -17 20 -14 20 3 0 -2 10 -10 22 -9 12 -16 30 -16 39
0 20 -34 31 -49 16 -19 -19 -23 0 -6 26 24 37 1 107 -27 79 -6 -6 -3 -15 8
-27 15 -14 15 -18 3 -26 -19 -12 -25 -11 -39 6 -10 13 -10 19 4 33 16 19 22
62 8 62 -4 0 -16 -11 -26 -25 -11 -14 -25 -24 -32 -21 -15 6 -54 -21 -54 -38
0 -22 -28 -27 -39 -8 -9 14 -10 11 -11 -15 0 -29 3 -33 25 -33 16 0 25 -6 25
-16 0 -9 -5 -12 -12 -8 -7 4 -2 -5 12 -20 34 -38 60 -47 87 -28 22 14 23 13
23 -14 0 -15 -3 -24 -7 -21 -3 4 -12 2 -19 -4 -10 -8 -15 -8 -19 3 -3 7 -15
15 -27 15 -12 1 -30 12 -40 25 -10 13 -18 18 -18 11 0 -19 -40 -2 -40 18 0 11
-7 19 -15 19 -8 0 -15 -8 -15 -17 0 -10 -8 -31 -18 -48 -28 -45 -36 -84 -17
-81 8 1 21 8 27 14 18 18 30 14 20 -5 -5 -10 -12 -35 -16 -56 -4 -21 -11 -35
-16 -32 -5 3 -12 -1 -17 -9 -5 -9 -19 -12 -41 -9 -32 5 -41 16 -22 28 5 3 10
19 10 36 0 16 5 29 10 29 6 0 10 13 10 29 0 15 13 57 29 92 l30 64 -21 16
c-13 10 -17 19 -10 23 6 3 17 0 25 -9 13 -13 16 -13 21 0 3 8 2 22 -1 32 -4 9
-2 14 3 10 6 -3 11 3 11 15 1 13 -3 18 -13 14 -9 -4 -14 1 -14 14 0 49 -40 2
-44 -51 -1 -16 -4 -30 -7 -31 -27 -17 -69 -40 -92 -50 -31 -14 -42 -39 -28
-65 5 -10 17 -37 25 -60 13 -36 14 -43 2 -43 -8 0 -22 -3 -31 -6 -15 -6 -15
-4 -4 14 7 11 17 18 21 16 16 -10 7 17 -12 36 -11 11 -20 24 -20 30 0 5 -20
-5 -44 -23 -24 -17 -42 -35 -39 -39 2 -3 -12 -22 -30 -42 -19 -20 -32 -38 -29
-40 6 -7 -38 -76 -49 -76 -5 0 -9 5 -9 10 0 15 53 110 61 110 4 0 10 12 13 26
10 37 36 74 53 74 8 0 21 6 29 14 16 16 19 30 5 22 -5 -4 -7 2 -4 13 7 27 -25
84 -43 77 -15 -6 -17 0 -14 58 2 42 -15 62 -37 44 -17 -14 -16 -39 1 -63 8
-11 11 -26 8 -35 -12 -33 -47 -70 -65 -70 -14 0 -17 -5 -13 -16 4 -10 -1 -23
-11 -33 -28 -25 -48 -64 -35 -69 6 -2 8 -11 4 -20 -6 -18 -62 -97 -86 -122
-20 -21 -38 -69 -30 -81 3 -6 -2 -21 -11 -35 -10 -15 -14 -32 -9 -42 4 -9 6
-28 5 -42 -3 -23 1 -22 43 20 45 43 66 45 26 2 -12 -12 -18 -22 -15 -22 4 0
-8 -19 -27 -42 -18 -23 -27 -38 -19 -34 7 5 3 -5 -10 -23 -25 -33 -46 -42 -34
-13 13 30 18 72 8 72 -5 0 -8 13 -5 30 6 45 -5 36 -34 -24 -20 -42 -29 -53
-44 -49 -12 3 -20 -2 -25 -16 -3 -12 -10 -19 -15 -16 -4 2 -15 -10 -24 -28
-14 -28 -16 -29 -12 -7 5 35 29 90 38 90 4 0 8 7 8 16 0 8 4 12 10 9 5 -3 21
14 36 37 15 24 30 45 34 48 4 3 20 36 35 74 15 38 38 85 51 104 13 19 24 47
24 61 0 14 9 41 21 60 16 27 23 31 30 20 5 -9 9 -10 9 -2 0 26 -22 23 -52 -6
-21 -20 -29 -36 -25 -50 4 -17 1 -19 -23 -15 -19 4 -29 1 -33 -10 -4 -9 -11
-16 -16 -16 -14 0 17 57 42 77 38 30 69 81 55 89 -6 4 -14 2 -16 -4 -2 -7 -8
-10 -13 -6 -5 3 -9 -2 -9 -10 0 -9 -12 -29 -26 -45 -14 -16 -24 -32 -22 -34 1
-3 -6 -16 -17 -29 -12 -13 -27 -32 -35 -43 -14 -19 -14 -19 3 -6 12 10 21 11
28 4 7 -7 5 -15 -8 -24 -10 -8 -20 -23 -21 -34 -2 -11 -9 -23 -14 -26 -7 -4
-6 -9 1 -13 6 -4 8 -19 6 -34 -2 -15 -7 -45 -10 -66 -5 -28 -9 -35 -15 -26 -5
8 -6 18 -3 23 3 5 7 29 8 53 l3 44 -38 -31 c-35 -28 -40 -37 -50 -103 -11 -75
-29 -146 -28 -111 1 55 -2 63 -22 58 -14 -4 -20 0 -20 11 0 35 -42 8 -60 -38
-6 -16 -17 -26 -29 -26 -11 0 -25 -6 -30 -13 -6 -6 -24 -28 -41 -47 -29 -33
-31 -34 -27 -10 6 36 18 61 27 55 14 -9 23 35 10 50 -7 8 -7 15 -1 19 5 4 12
2 16 -4 13 -22 43 -10 50 20 6 26 35 48 58 42 4 -1 7 4 8 10 2 31 8 48 27 68
12 13 18 31 16 48 -2 15 -1 21 2 15 8 -18 38 -17 31 1 -6 15 37 58 48 48 4 -4
2 3 -4 15 -9 18 -9 22 2 17 7 -2 19 6 27 21 7 14 18 25 23 25 14 0 57 49 57
66 0 7 -7 14 -15 14 -8 0 -15 5 -15 11 0 7 11 9 29 6 21 -5 33 -1 47 15 14 15
16 22 7 25 -7 3 -13 20 -13 39 0 22 -4 32 -12 29 -7 -2 -28 -1 -46 3 l-33 7
20 22 c12 13 17 25 11 28 -6 3 -10 17 -10 31 0 21 3 24 28 18 19 -4 23 -3 13
4 -12 9 -12 13 2 26 8 9 20 16 24 16 5 0 17 24 27 53 19 53 36 81 36 59 0 -7
5 -12 10 -12 6 0 10 7 10 15 0 8 6 12 14 9 10 -4 16 6 21 35 3 21 13 42 20 45
7 2 21 21 30 41 17 35 17 36 -5 55 -29 26 -19 38 14 17 24 -16 25 -16 47 19
12 20 24 52 26 72 2 20 8 39 12 42 5 3 11 15 15 28 10 30 28 28 20 -3 -4 -15
-2 -25 5 -25 6 0 11 7 11 15 0 8 5 15 11 15 6 0 9 7 5 15 -3 9 0 15 9 15 8 0
15 -4 15 -10 0 -5 8 -10 19 -10 12 0 25 16 40 48 12 26 29 60 38 76 14 26 17
27 25 12 8 -14 3 -25 -22 -51 -17 -18 -32 -39 -34 -46 -10 -57 -22 -67 -56
-49 -16 9 -21 6 -26 -14 -3 -14 -12 -27 -19 -30 -17 -6 -67 -105 -59 -117 3
-6 1 -15 -4 -22 -5 -7 -12 -32 -15 -56 l-6 -45 23 29 c13 16 28 25 34 21 16
-10 15 7 0 22 -10 10 -10 15 -1 20 7 4 11 25 9 50 -4 53 10 55 19 2 4 -22 11
-40 16 -40 5 0 9 5 9 10 0 6 5 10 10 10 6 0 6 -7 -1 -18 -14 -22 -4 -76 12
-66 8 4 7 9 -2 15 -17 10 -1 11 24 0 17 -6 16 -9 -7 -34 -14 -16 -26 -24 -26
-20 0 4 -15 -8 -33 -28 -17 -20 -40 -39 -49 -42 -24 -8 -23 -24 2 -39 24 -15
26 -46 5 -54 -24 -10 -18 -36 8 -32 20 3 22 8 22 61 0 31 3 57 7 57 12 0 118
108 118 120 0 6 -11 16 -25 22 -31 14 -31 20 0 49 32 31 32 48 -1 41 -25 -4
-26 -4 -13 19 7 14 14 19 16 12 3 -9 10 -9 29 -1 26 12 33 38 9 38 -12 0 -11
5 3 30 9 16 25 30 35 30 10 0 16 -4 13 -8 -3 -5 1 -9 9 -9 8 0 12 4 10 8 -7
10 64 71 76 64 15 -10 10 -26 -19 -60 -69 -82 -70 -83 -50 -103 22 -22 72 19
102 86 11 23 22 38 26 32 7 -11 110 80 110 98 0 6 7 9 15 6 9 -4 15 0 16 7 2
35 11 74 19 84 13 15 -1 31 -26 31 -19 0 -21 -4 -13 -23 5 -13 4 -25 -2 -28
-5 -4 -7 -10 -4 -15 8 -13 -6 -40 -21 -40 -7 0 -18 -9 -24 -20 -12 -22 -36
-27 -42 -9 -3 9 -14 8 -41 -2 -27 -9 -36 -18 -32 -29 3 -10 1 -9 -9 3 -14 18
-16 18 -40 2 -14 -10 -26 -23 -26 -31 0 -16 -17 -27 -30 -19 -6 4 7 24 30 47
48 46 48 71 0 62 -19 -4 -30 -2 -30 5 0 6 10 11 23 11 44 0 67 12 67 34 0 12
-6 28 -12 35 -8 8 -8 11 -2 8 7 -4 14 5 18 24 7 36 0 53 -17 42 -16 -10 -87
-11 -81 -1 3 4 11 8 17 8 22 0 46 37 49 75 l3 37 28 -26 c15 -14 34 -26 41
-26 16 0 43 38 52 74 5 20 13 26 32 26 14 0 22 3 19 7 -12 11 27 32 61 33 25
0 32 -4 32 -20 0 -11 -4 -20 -10 -20 -5 0 -10 7 -10 15 0 8 -4 15 -10 15 -5 0
-10 -7 -10 -16 0 -10 -6 -14 -15 -10 -9 3 -15 0 -15 -10 0 -11 -6 -14 -16 -10
-11 4 -14 1 -12 -12 2 -10 13 -17 28 -17 20 -1 24 -5 22 -23 -5 -31 14 -27 35
8 9 17 21 30 25 30 4 0 8 5 8 11 0 12 66 96 90 116 19 16 50 17 50 2 0 -13
-35 -79 -69 -129 l-23 -35 7 33 c5 26 3 32 -9 32 -9 0 -21 -12 -26 -26 -6 -15
-20 -40 -31 -56 -14 -19 -18 -33 -12 -39 14 -14 43 16 43 42 0 17 5 19 35 13
23 -4 35 -2 35 5 0 8 5 9 19 1 11 -5 22 -10 25 -10 5 0 38 49 124 183 62 97
163 187 123 109 -4 -9 -11 -29 -15 -44 -6 -25 -4 -28 19 -28 14 0 25 6 26 13
1 6 2 23 2 36 3 45 27 36 27 -9 0 -34 3 -40 13 -31 10 8 18 7 32 -3 17 -12 17
-14 -4 -35 -22 -22 -22 -22 -28 -2 -15 58 -122 -10 -123 -77 0 -18 -4 -31 -8
-28 -4 2 -5 32 -2 65 l6 60 -26 -16 c-23 -14 -60 -75 -60 -101 0 -7 -7 -12
-15 -12 -9 0 -15 -9 -15 -24 0 -15 -7 -27 -17 -30 -10 -2 -4 -4 12 -3 22 2 30
7 29 19 -2 25 17 23 23 -2 6 -22 14 -25 29 -10 7 7 14 3 22 -15 6 -14 8 -25 3
-25 -5 0 -12 7 -15 16 -5 13 -8 13 -19 2 -17 -17 -30 -78 -17 -78 6 0 10 4 10
8 0 13 97 55 109 48 20 -13 12 -24 -25 -36 -19 -7 -33 -14 -31 -16 2 -3 16 0
31 5 22 9 28 7 38 -9 16 -26 23 -25 25 2 1 11 6 24 12 27 5 3 21 32 35 63 14
31 31 60 36 63 6 3 10 15 10 25 0 10 6 25 13 32 26 26 47 82 34 90 -8 5 -6 8
6 8 9 0 17 7 17 15 0 8 4 15 9 15 5 0 20 17 32 38 25 39 27 43 61 82 l21 25
-7 -28 c-8 -33 13 -37 32 -7 14 24 32 26 32 5 0 -8 5 -15 11 -15 6 0 -6 -15
-25 -34 -34 -32 -48 -66 -26 -66 19 0 10 -18 -11 -23 -16 -4 -19 -10 -14 -28
4 -13 7 -63 6 -111 -1 -84 0 -88 21 -88 l21 0 -23 -25 c-13 -14 -18 -25 -11
-25 6 0 14 6 17 14 3 8 12 12 20 9 21 -8 17 21 -6 42 -20 18 -19 38 3 29 7 -2
20 9 30 26 10 16 26 30 36 30 13 0 21 10 25 35 6 28 11 35 31 35 15 0 26 -7
30 -20 7 -24 25 -27 25 -5 0 9 9 33 20 55 11 22 20 49 20 60 0 12 5 31 12 43
l12 22 7 -25 c4 -14 7 -44 8 -68 1 -24 5 -41 10 -38 5 4 7 28 4 55 -5 55 9 93
32 85 8 -4 15 -1 15 7 0 7 3 10 6 7 3 -4 -1 -17 -9 -30 -8 -12 -17 -39 -21
-58 -6 -34 -5 -35 29 -37 30 -1 38 3 51 30 16 31 38 57 48 57 7 0 -26 -64 -38
-72 -6 -4 -4 -9 6 -13 21 -8 58 11 58 30 0 18 16 20 26 4 3 -6 1 -15 -6 -19
-9 -5 -9 -9 -1 -14 6 -4 11 -4 11 1 0 4 5 1 10 -7 8 -12 10 -9 10 13 0 15 5
27 10 27 6 0 10 -5 10 -11 0 -6 25 15 56 47 31 33 82 85 112 117 31 31 51 57
46 57 -6 0 -15 -5 -22 -12 -13 -13 -15 -6 -12 50 1 23 -3 32 -14 32 -10 0 -14
-9 -13 -33 l2 -32 -60 4 c-32 2 -70 7 -82 12 -16 6 -23 5 -23 -4 -1 -6 -7 3
-16 22 -8 19 -17 31 -21 28 -3 -4 -1 -13 5 -20 16 -19 4 -29 -20 -16 -10 5
-23 7 -28 4 -6 -4 -14 4 -19 17 -8 20 -10 21 -16 6 -4 -10 -16 -18 -26 -18
-16 0 -18 3 -9 19 7 14 7 22 0 26 -6 4 -8 15 -5 26 4 10 2 19 -4 19 -5 0 -12
-14 -16 -30 -4 -17 -12 -30 -18 -30 -17 1 -53 32 -60 53 -4 9 -15 17 -26 17
-11 0 -23 5 -27 11 -5 8 -10 6 -16 -5 -5 -9 -13 -14 -19 -11 -5 3 -6 0 -3 -8
3 -8 -2 -17 -11 -20 -8 -4 -20 -17 -25 -29 -8 -20 -9 -21 -9 -4 -1 19 -2 19
-21 -2 -11 -12 -20 -25 -20 -30 0 -5 -11 -7 -25 -4 -14 2 -25 10 -25 18 0 10
-8 9 -35 -6 -41 -23 -45 -17 -10 16 14 13 25 28 25 34 0 16 18 12 29 -7 9 -17
11 -17 25 2 20 26 20 35 1 35 -8 0 -15 -6 -15 -12 0 -7 -7 -4 -16 7 l-15 20
-18 -20 c-36 -42 -59 -57 -80 -50 -17 5 -19 10 -11 26 7 13 7 19 0 19 -5 0
-10 -6 -10 -12 -1 -7 -9 -3 -19 10 -26 30 -34 28 -26 -6 4 -20 2 -29 -8 -29
-7 0 -14 13 -15 30 -3 35 -9 47 -24 47 -6 0 -8 -12 -4 -30 7 -38 -9 -39 -23
-2 -7 16 -10 19 -7 6 4 -22 -27 -49 -44 -39 -6 4 -10 -2 -10 -11 0 -14 -3 -15
-12 -6 -16 16 -28 15 -28 -3 0 -19 -36 -20 -44 0 -3 8 1 29 8 46 8 20 15 27
18 18 3 -8 8 -11 12 -8 3 3 -6 16 -20 30 l-26 24 7 -27 c5 -18 3 -28 -4 -28
-6 0 -11 4 -11 10 0 5 -7 7 -15 4 -19 -8 -19 -28 0 -44 8 -7 15 -19 15 -27 0
-11 -7 -9 -31 8 -25 17 -29 26 -24 46 6 24 5 25 -12 7 -17 -17 -18 -17 -21 2
-5 24 -22 43 -22 24 0 -8 4 -32 9 -53 7 -30 6 -36 -3 -28 -7 6 -16 8 -20 4 -4
-4 -11 -1 -16 7 -8 13 -10 12 -10 -2 0 -11 -5 -15 -14 -12 -8 3 -12 13 -9 24
3 10 0 21 -6 24 -6 4 -11 2 -11 -3 0 -21 -19 -10 -28 17 -6 15 -11 21 -11 13
-1 -12 -4 -11 -14 3 -8 11 -19 15 -30 10 -15 -5 -13 -10 15 -30 22 -17 27 -24
15 -24 -10 0 -20 -7 -23 -15 -5 -12 -10 -13 -20 -4 -8 6 -11 15 -8 20 3 5 0 9
-5 9 -6 0 -11 -7 -11 -16 0 -11 -5 -14 -16 -10 -9 3 -29 6 -45 6 -25 0 -29 4
-29 26 0 16 -5 24 -12 21 -7 -2 -22 3 -32 12 -11 9 -16 10 -12 3 4 -7 1 -15
-8 -18 -9 -3 -16 -16 -16 -28 0 -17 -2 -19 -11 -6 -9 12 -10 11 -6 -8 3 -12 1
-20 -4 -16 -5 3 -9 12 -9 20 0 12 -19 19 -42 15 -5 0 -8 9 -8 21 0 28 -10 42
-32 51 -14 5 -17 -1 -16 -34 0 -21 4 -39 9 -39 5 0 9 5 9 11 0 5 5 7 10 4 21
-13 10 -34 -17 -32 -21 2 -31 10 -40 32 -6 17 -12 24 -12 18 -1 -21 -28 -15
-34 7 -5 21 -27 28 -27 9 0 -7 -7 -17 -14 -23 -10 -7 -17 -39 -20 -101 -14
-232 -28 -393 -37 -430 -6 -22 -13 -56 -16 -75 -2 -19 -7 -42 -10 -50 -4 -8
-7 -19 -7 -25 -1 -13 -67 -19 -75 -7 -3 5 -22 12 -42 16 -31 5 -37 4 -42 -14
-3 -13 -11 -18 -20 -14 -9 3 -26 0 -38 -7 -20 -10 -26 -8 -46 15 -12 15 -28
26 -35 24 -7 -1 -24 2 -37 6 -24 8 -24 9 10 23 43 18 150 17 207 -1 17 -6 27
-2 42 16 14 17 21 20 30 11 9 -8 7 -13 -9 -18 -29 -9 -27 -35 3 -35 18 0 25 7
29 27 2 16 12 56 21 91 17 61 14 122 -5 122 -5 0 -9 -16 -9 -36 0 -36 0 -36
-25 -20 -13 9 -31 16 -40 16 -14 0 -16 17 -14 133 1 72 6 169 12 215 9 80 9
84 -12 98 -12 9 -19 19 -16 24 3 4 -1 11 -7 13 -8 3 -6 6 5 6 21 1 24 46 4 54
-10 4 -13 -2 -9 -19 2 -14 0 -24 -7 -24 -6 0 -11 -7 -11 -15 0 -20 -36 -19
-44 0 -3 8 -3 30 0 48 l5 32 -15 -25 c-8 -14 -15 -35 -16 -47 0 -28 -16 -30
-25 -3 -3 11 -13 20 -20 20 -10 0 -12 -6 -8 -17 5 -15 4 -16 -8 -7 -8 7 -29
15 -48 19 -19 4 -45 19 -58 33 -19 20 -23 22 -23 8 0 -10 9 -32 21 -49 l21
-32 -24 28 c-22 25 -46 38 -33 18 8 -13 -12 -24 -27 -14 -17 10 -58 11 -58 1
0 -4 -11 -8 -25 -8 -20 0 -25 5 -26 28 l-1 27 -10 -26 c-15 -38 -64 -36 -84 3
-18 35 -28 36 -22 3 6 -27 -1 -32 -19 -14 -7 7 -15 6 -26 -6 -15 -15 -19 -14
-42 1 -18 11 -25 24 -22 36 7 24 -7 32 -23 13 -7 -8 -21 -15 -31 -15 -22 0
-44 35 -29 45 5 3 10 1 10 -4 0 -16 17 -13 23 3 4 10 1 13 -8 10 -16 -7 -35
25 -27 46 4 13 3 13 -11 2 -13 -12 -19 -10 -34 8 l-18 21 -5 -33 c-3 -22 -11
-34 -24 -36 -10 -2 -16 0 -12 6 3 5 -1 15 -9 22 -20 17 -45 -3 -45 -36 0 -13
-6 -24 -13 -24 -18 0 -37 42 -31 66 3 13 -4 23 -23 32 -52 24 -60 13 -38 -53
5 -14 4 -16 -3 -6 -11 15 -28 -2 -18 -18 7 -11 -22 -23 -35 -16 -5 3 -12 20
-17 38 -7 25 -14 32 -33 32 -22 0 -27 8 -19 40 5 20 0 45 -8 45 -5 0 -14 -12
-20 -26 -7 -14 -17 -22 -22 -19 -6 4 -9 1 -8 -6 2 -7 -5 -15 -15 -17 -23 -5
-67 35 -60 54 3 8 1 14 -5 14 -5 0 -12 -10 -16 -22 -5 -19 -8 -21 -16 -8 -5 8
-10 30 -10 48 0 17 -4 32 -10 32 -5 0 -10 -8 -10 -19 0 -13 -11 -21 -40 -29
-38 -9 -39 -9 -28 12 10 18 9 19 -4 9 -11 -10 -17 -10 -26 -1 -7 7 -12 8 -12
3 0 -5 -7 0 -15 11 -13 16 -16 17 -25 4 -5 -8 -7 -28 -4 -43 5 -26 4 -28 -14
-18 -11 6 -22 20 -24 31 -4 28 -23 21 -20 -7 4 -25 -17 -41 -28 -23 -5 7 -15
10 -25 6 -11 -4 -25 0 -36 10 -17 15 -19 15 -19 1 0 -9 -5 -19 -10 -22 -6 -4
-10 5 -10 19 0 16 6 26 15 26 20 0 19 5 -10 34 l-25 25 -8 -32 c-5 -18 -5 -33
0 -35 11 -5 10 -42 -1 -42 -5 0 -14 7 -21 15 -17 21 -30 19 -30 -5 0 -14 -7
-20 -21 -20 -17 0 -20 4 -15 24 4 15 0 28 -9 36 -14 12 -20 5 -17 -21 1 -4 -8
-15 -19 -25 -18 -16 -19 -16 -13 -1 7 20 -36 61 -50 47 -5 -5 -21 -3 -37 6
-16 8 -29 12 -29 8 0 -4 -7 -1 -15 6 -21 17 -29 7 -16 -18 6 -12 11 -29 11
-39 0 -16 -2 -15 -22 4 -14 15 -23 37 -24 65 -2 24 -4 52 -4 63 -1 11 -4 14
-7 8 -7 -20 -23 -15 -33 10 -7 16 -8 7 -4 -33 3 -30 10 -59 15 -64 5 -6 9 -17
9 -25 0 -11 -4 -10 -14 5 -14 18 -15 18 -24 -7 -6 -15 -18 -29 -27 -33 -9 -3
-14 -2 -10 3 3 5 -2 16 -10 24 -8 9 -15 20 -15 26 0 6 -4 11 -10 11 -14 0 -13
-11 6 -55 8 -20 13 -39 10 -42 -10 -10 -76 22 -76 37 0 8 -12 26 -26 39 -17
17 -22 27 -14 35 12 12 13 43 1 50 -5 4 -7 -4 -4 -15 6 -20 3 -21 -30 -15 -31
6 -36 4 -30 -9 4 -12 1 -16 -13 -13 -26 4 -51 28 -63 61 -6 15 -16 27 -22 27
-6 0 -8 -7 -5 -16 3 -9 9 -27 12 -41 6 -23 5 -24 -15 -14 -11 7 -21 18 -21 26
0 8 -9 15 -20 15 -17 0 -20 -7 -20 -41 0 -35 -2 -40 -15 -29 -23 19 -18 108 8
122 17 9 19 8 14 -6 -4 -9 -3 -16 2 -16 13 0 22 44 15 79 -8 38 -26 41 -22 4
2 -21 -3 -30 -24 -41 -28 -13 -32 -21 -28 -56 1 -11 -3 -15 -9 -12 -15 10 -13
-14 4 -44 17 -30 19 -44 5 -35 -6 3 -10 1 -10 -4 0 -6 -4 -11 -10 -11 -5 0
-10 11 -10 25 0 13 -11 41 -25 61 -14 20 -25 45 -25 55 0 11 -4 19 -9 19 -5 0
-7 -19 -4 -42 5 -36 4 -40 -10 -35 -11 4 -17 1 -17 -8 0 -8 -4 -15 -9 -15 -5
0 -8 -17 -6 -39 2 -22 -2 -46 -9 -56 -12 -17 -14 -17 -34 3 -13 13 -17 22 -9
22 6 0 4 5 -5 11 -10 5 -18 21 -18 35 0 14 -4 23 -9 20 -5 -3 -11 12 -15 34
-3 22 -11 40 -17 40 -6 0 -7 -9 -3 -22 11 -32 12 -168 2 -168 -5 0 -11 7 -15
16 -3 8 -11 13 -17 11 -7 -3 -20 1 -31 9 -15 11 -21 11 -26 2 -13 -21 -23 1
-24 49 0 29 -5 48 -13 51 -7 2 -13 -2 -11 -9 8 -59 -20 -70 -81 -31 -2 2 1 7
8 11 10 6 10 15 -2 41 l-14 33 -7 -34 c-6 -25 -9 -29 -14 -17 -5 15 -9 13 -26
-12 -15 -22 -25 -28 -40 -24 -37 12 -43 22 -35 64 4 22 4 40 -1 40 -4 0 -10 8
-12 18 -4 13 -5 12 -6 -5 -1 -13 -10 -24 -22 -28 -16 -5 -19 -12 -15 -28 4
-12 9 -35 12 -52 l6 -30 -21 25 c-11 14 -21 21 -21 15 0 -5 -6 -1 -13 10 -17
28 -37 29 -37 3 0 -27 -12 -16 -16 15 -1 12 -3 24 -3 27 -1 3 -6 -2 -11 -10
-8 -13 -13 -13 -31 -2 -11 7 -24 10 -27 6 -4 -4 -2 -9 5 -11 7 -2 9 -11 6 -19
-3 -7 -9 -12 -13 -9 -12 7 -41 -6 -35 -15 8 -13 -9 -20 -25 -10 -41 25 -40 56
-39 -2094 1 -1128 5 -2033 9 -2011 7 38 7 38 9 -17 0 -37 -3 -58 -10 -58 -8 0
-8 -4 0 -13 6 -9 8 -24 3 -43 -5 -16 -10 -85 -11 -154 l-2 -125 33 50 c34 52
58 76 69 69 9 -5 -29 -84 -40 -84 -5 0 -12 -11 -15 -24 -3 -14 -15 -28 -27
-31 -16 -5 -19 -12 -14 -28 4 -12 7 -31 6 -42 -1 -11 -4 -206 -7 -432 l-5
-413 260 0 c198 0 261 3 264 13 4 9 6 9 6 -1 1 -9 85 -12 395 -12 365 1 395 2
399 18 4 16 5 16 6 0 1 -16 15 -18 147 -18 124 0 145 2 141 15 -4 8 -2 17 3
20 6 4 10 -3 10 -14 0 -18 7 -19 97 -20 67 -1 99 3 105 12 6 9 8 9 8 0 0 -10
26 -13 95 -13 67 0 95 4 95 12 0 9 3 9 12 0 21 -21 54 -14 66 14 11 23 32 25
32 3 0 -6 -4 -8 -9 -5 -5 3 -11 -1 -15 -9 -5 -13 31 -15 285 -15 l289 0 -5 28
-5 27 11 -27 11 -28 112 0 c76 0 116 4 125 13 11 9 13 9 7 0 -12 -21 330 -18
350 2 20 19 34 19 34 0 0 -24 19 -18 32 10 15 32 32 32 26 0 l-5 -25 182 0
183 0 5 48 c10 81 16 246 11 265 -3 10 -10 14 -17 10 -6 -4 -1 10 11 31 12 20
22 49 22 62 0 16 5 24 13 21 6 -2 11 -14 9 -25 -2 -12 1 -22 6 -22 12 0 10
-18 -6 -46 -6 -12 -13 -74 -14 -142 -2 -66 -6 -118 -9 -116 -4 2 -9 -10 -11
-26 -3 -17 -2 -30 1 -30 6 1 89 90 119 128 l18 24 1 -24 c2 -27 -43 -98 -63
-98 -7 0 -16 -9 -19 -20 -4 -11 -11 -18 -16 -15 -5 4 -9 -1 -9 -9 0 -13 19
-16 129 -15 l130 0 16 52 c9 29 20 61 24 72 5 11 22 65 39 120 17 55 34 109
38 119 6 16 4 18 -11 12 -12 -4 -9 2 10 20 26 24 27 28 12 39 -16 11 -14 14
13 25 22 9 29 18 25 30 -3 9 1 32 8 51 28 68 30 74 35 89 2 8 5 27 6 42 0 14
4 24 8 22 9 -6 16 7 23 44 7 43 22 79 34 87 6 3 11 19 11 36 0 16 3 29 8 29
10 0 45 116 40 132 -3 7 2 18 11 25 9 7 11 13 5 13 -20 0 -2 51 21 62 16 7 25
22 29 49 3 21 22 72 41 112 19 41 35 78 35 84 0 6 6 13 14 16 10 4 12 0 9 -14
-3 -10 -10 -19 -15 -19 -5 0 -6 -4 -3 -10 7 -12 -28 -94 -44 -104 -6 -4 -8
-12 -5 -18 4 -5 1 -20 -5 -31 -27 -54 -91 -252 -86 -268 3 -9 0 -21 -7 -26
-24 -15 -44 -66 -94 -238 -6 -18 -4 -18 16 3 13 14 20 31 17 42 -7 26 18 44
64 47 47 3 49 -1 9 -22 -16 -9 -30 -23 -30 -33 0 -10 -8 -25 -17 -33 -10 -9
-25 -26 -33 -37 -8 -12 -20 -22 -26 -22 -7 0 -15 -7 -18 -16 -8 -22 -8 -22 11
-20 10 0 19 -7 21 -16 4 -21 -34 -26 -40 -6 -3 7 -9 -2 -15 -19 -9 -25 -8 -35
2 -50 9 -10 14 -13 15 -5 0 14 30 17 30 3 0 -5 -3 -17 -6 -26 -6 -14 -8 -14
-26 2 -19 17 -20 17 -38 -7 -19 -25 -37 -70 -66 -165 -27 -90 -28 -95 -10 -95
25 0 19 -17 -11 -32 -14 -7 -29 -19 -31 -27 -3 -8 0 -11 6 -7 5 3 21 2 34 -3
12 -6 17 -10 10 -10 -7 -1 -21 -16 -32 -33 -11 -18 -20 -29 -20 -25 0 5 -7 2
-15 -7 -24 -24 -17 -36 20 -36 19 0 35 4 35 9 0 12 100 114 107 108 10 -11 -8
-43 -36 -62 -17 -11 -32 -27 -34 -37 -5 -17 8 -18 193 -18 128 0 201 4 205 10
5 8 11 8 19 1 9 -7 257 -11 751 -11 689 0 740 1 759 17 20 17 20 17 7 1 -13
-17 159 -18 3577 -18 2862 0 3592 3 3596 13 5 9 7 9 12 0 10 -22 36 -15 29 7
-3 11 -2 20 4 20 5 0 12 8 15 18 3 9 3 0 0 -20 -5 -37 -5 -37 31 -36 19 1 35
5 35 10 0 5 11 13 24 18 14 5 30 19 37 32 12 22 11 22 -6 8 -17 -14 -17 -14
-1 18 10 20 15 46 12 70 -2 20 -7 75 -10 122 -5 67 -4 80 5 60 6 -14 13 -68
16 -120 3 -52 6 -96 8 -98 8 -9 55 12 55 25 0 9 -6 13 -15 9 -9 -3 -15 0 -15
10 0 8 5 12 10 9 6 -3 10 1 10 9 0 9 5 16 11 16 6 0 9 -6 6 -14 -3 -7 -1 -33
5 -56 9 -35 13 -39 25 -28 11 12 11 23 2 66 -7 28 -15 49 -19 47 -3 -2 -6 8
-5 23 1 15 -4 43 -12 62 -12 33 -12 32 -7 -30 4 -44 2 -60 -4 -51 -6 8 -10 42
-9 77 1 34 -1 60 -5 57 -5 -2 -8 7 -8 21 0 18 -5 26 -17 26 -16 1 -16 2 -2 10
12 7 14 20 9 63 -5 44 -2 59 12 77 20 25 24 19 7 -12 -10 -18 -9 -20 7 -14 18
6 18 5 2 -8 -22 -16 -22 -36 0 -102 11 -31 22 -49 30 -47 13 5 17 -23 4 -29
-5 -2 -5 -17 0 -35 6 -24 13 -31 24 -26 14 5 14 3 3 -15 -11 -17 -10 -30 6
-81 10 -34 22 -61 27 -61 4 0 8 -13 8 -29 0 -35 19 -91 31 -91 5 0 9 16 7 35
-1 19 1 37 5 41 4 4 7 -11 7 -33 l0 -41 124 -1 124 0 18 47 c15 38 18 72 17
187 -2 107 0 133 8 110 6 -16 11 -36 11 -42 1 -7 5 -13 10 -13 5 0 8 10 7 23
-2 12 2 32 9 44 7 12 12 52 12 90 l-1 68 -16 -30 c-10 -16 -16 -39 -15 -50 2
-15 1 -17 -6 -6 -13 19 -25 -3 -17 -30 5 -14 3 -19 -4 -15 -5 4 -13 22 -17 41
-3 19 -9 33 -13 30 -4 -2 -5 10 -3 28 4 28 6 29 13 12 5 -13 7 2 5 38 -5 71
-15 87 -17 26 -2 -31 -3 -36 -6 -16 -4 25 -7 27 -21 15 -16 -12 -16 -11 0 7
14 17 14 23 4 38 -16 21 -22 21 -29 3 -4 -11 -1 -13 11 -9 15 6 15 4 -2 -15
-18 -21 -21 -47 -16 -149 1 -24 4 -43 7 -43 3 0 13 10 24 23 19 22 19 22 0
-13 -18 -34 -19 -116 -1 -105 4 2 5 -6 3 -18 -3 -13 0 -47 5 -75 5 -29 5 -52
1 -52 -10 0 -24 49 -16 57 4 3 0 18 -8 33 -8 15 -15 52 -16 83 -2 56 -11 72
-23 42 -14 -37 -22 -10 -13 47 8 53 2 176 -8 166 -4 -3 -40 -201 -51 -273 -2
-16 -7 -46 -10 -65 -6 -34 -6 -34 11 -15 9 11 5 0 -9 -25 -14 -25 -26 -64 -27
-88 -2 -23 -6 -42 -11 -42 -4 0 -5 15 -1 33 6 30 5 31 -12 17 -17 -13 -17 -10
3 23 12 21 24 52 27 70 3 18 8 48 11 67 3 19 15 81 25 136 11 56 19 105 18
110 -1 5 1 17 5 26 4 9 6 26 4 37 -3 19 -7 18 -48 -19 -25 -22 -49 -40 -53
-40 -5 0 5 12 22 26 17 14 31 32 31 40 0 7 6 11 13 8 18 -6 51 31 41 47 -4 7
-6 36 -5 65 1 29 -3 55 -9 59 -8 5 -8 10 0 20 8 10 7 16 -7 24 -10 6 -12 11
-6 11 14 0 16 107 3 115 -4 3 -28 -14 -53 -38 -25 -23 -54 -47 -64 -54 -17
-11 -17 -12 0 -12 9 -1 17 -3 17 -6 0 -8 -32 -57 -52 -79 -10 -11 -18 -26 -18
-33 0 -7 -4 -13 -9 -13 -5 0 -8 -11 -8 -24 0 -18 4 -23 16 -19 9 4 6 -3 -8
-15 -13 -12 -25 -22 -27 -22 -5 0 4 62 11 87 4 13 11 23 15 23 11 0 20 39 10
45 -4 3 -11 -5 -15 -18 -4 -14 -8 -17 -12 -9 -7 18 -164 -144 -157 -162 3 -7
-7 -21 -21 -30 -15 -10 -24 -23 -21 -31 3 -8 1 -17 -5 -21 -6 -3 -8 -12 -5
-20 3 -7 -3 -19 -13 -26 -14 -10 -41 -66 -41 -84 0 -12 41 -1 50 14 11 16 11
16 6 -1 -3 -9 -1 -17 4 -17 6 0 10 5 10 11 0 6 9 8 20 4 11 -4 20 -2 20 4 0 6
-6 11 -12 11 -9 0 -13 21 -14 70 0 39 3 70 8 70 4 0 8 -15 8 -32 0 -18 6 -56
14 -85 15 -55 11 -63 -33 -63 -10 0 -25 -15 -35 -37 -14 -29 -20 -34 -27 -22
-7 10 -8 6 -3 -13 3 -16 2 -28 -4 -28 -14 0 -22 24 -15 49 8 29 -3 26 -22 -6
l-16 -28 6 35 7 35 -20 -35 c-11 -19 -23 -35 -28 -35 -5 0 -16 -4 -24 -9 -8
-5 0 6 18 24 17 18 32 36 32 41 0 5 -18 9 -40 9 -22 0 -40 3 -40 7 0 16 25 73
32 73 12 0 10 -17 -4 -40 -17 -27 -6 -33 43 -23 l42 8 1 48 c1 30 -3 47 -11
47 -6 0 -13 -7 -15 -15 -2 -12 -6 -11 -16 6 -8 11 -9 18 -3 14 6 -3 11 2 12
12 0 10 3 13 6 6 13 -32 23 -7 23 57 0 43 -4 70 -11 70 -5 0 -7 5 -3 11 3 6 1
15 -6 19 -10 6 -10 15 -2 40 15 41 2 35 -40 -20 -20 -25 -40 -44 -47 -42 -6 1
-11 -9 -11 -22 0 -13 -7 -29 -15 -36 -28 -23 -37 33 -31 180 3 74 8 149 11
165 l6 30 -15 -34 c-9 -18 -13 -37 -10 -42 3 -5 0 -9 -6 -9 -6 0 -9 -3 -7 -7
3 -5 -1 -14 -9 -20 -8 -8 -15 -9 -19 -3 -3 6 -2 10 4 10 6 0 14 12 17 27 4 15
22 63 40 107 l32 81 -29 27 c-26 26 -57 39 -45 20 5 -9 -11 -39 -18 -32 -2 3
-2 17 1 31 4 21 10 25 35 24 24 -2 34 4 49 29 23 37 24 28 4 -21 -18 -42 -19
-56 -4 -51 12 4 71 138 60 138 -4 0 -13 -6 -20 -12 -6 -7 -16 -13 -22 -13 -5
0 -21 -14 -34 -30 l-26 -30 22 40 c12 22 25 45 31 52 13 16 48 113 40 113 -3
0 -25 -21 -50 -46 -34 -36 -41 -49 -31 -55 12 -7 12 -9 1 -9 -8 0 -16 9 -19
20 -3 11 -10 17 -15 14 -6 -4 -5 3 1 14 9 18 8 21 -9 19 -23 -1 -22 -15 9 -81
13 -28 19 -52 14 -57 -5 -5 -17 12 -27 41 -18 51 -44 83 -33 41 4 -15 -1 -28
-14 -39 -10 -9 -19 -26 -19 -37 0 -11 -7 -29 -15 -39 -11 -14 -15 -16 -15 -5
1 18 35 117 44 126 3 3 6 13 5 22 0 9 -12 -6 -25 -34 -17 -35 -23 -43 -22 -25
1 14 -1 31 -6 38 -10 16 40 92 62 92 11 0 12 3 3 14 -9 11 -9 15 1 19 7 3 -2
6 -19 6 -18 1 -33 6 -33 12 0 5 -5 7 -11 3 -8 -5 -7 -9 1 -14 8 -5 10 -15 5
-26 -5 -11 -7 -24 -6 -30 1 -7 -6 -15 -15 -18 -9 -3 -14 -12 -11 -19 3 -8 -1
-14 -9 -14 -19 0 -18 5 12 57 22 38 22 42 5 26 -11 -10 -23 -27 -26 -37 -8
-23 -31 -25 -39 -3 -6 16 12 60 21 50 3 -3 1 -11 -5 -19 -7 -8 -7 -18 -2 -27
8 -13 10 -13 10 1 0 9 9 24 19 33 11 10 19 25 19 34 0 10 3 25 7 35 4 10 3 17
-5 17 -6 0 -8 4 -5 10 3 6 -1 7 -9 4 -9 -3 -16 -1 -16 5 0 6 5 11 11 11 6 0 9
7 5 15 -3 8 -1 15 4 15 12 0 64 69 57 76 -6 6 -51 -21 -84 -52 -28 -26 -83
-37 -83 -18 0 7 -7 17 -16 22 -14 8 -14 13 -4 32 8 15 8 20 1 16 -6 -4 -11 -3
-11 3 0 5 10 13 22 17 21 6 21 7 2 22 -17 13 -17 14 -1 9 11 -4 20 -1 23 8 4
8 10 13 15 10 13 -9 29 29 18 46 -6 10 -9 10 -9 2 0 -7 -6 -13 -14 -13 -8 0
-22 -10 -30 -22 -9 -12 -19 -19 -22 -15 -4 4 3 19 17 34 l24 27 -29 -18 c-22
-14 -30 -15 -36 -5 -9 14 8 46 29 54 8 3 18 0 22 -7 7 -10 12 -11 26 0 10 6
29 17 43 23 15 7 20 13 13 16 -7 3 -13 11 -13 19 0 7 -6 11 -14 8 -8 -3 -12
-13 -9 -23 3 -13 -2 -20 -18 -24 -29 -8 -29 -7 -44 50 -9 35 -9 50 -1 55 20
14 27 8 21 -15 -6 -21 -6 -21 9 -3 9 11 16 31 17 45 1 34 14 67 22 55 3 -6 2
-16 -4 -24 -5 -8 -9 -25 -9 -38 0 -13 -10 -36 -22 -52 -17 -24 -19 -32 -8 -44
14 -18 32 -12 24 9 -7 18 31 55 58 55 17 0 19 -3 10 -12 -20 -20 -14 -30 11
-16 12 7 28 11 36 9 7 -1 11 4 9 11 -3 7 -10 14 -16 14 -26 3 -26 5 1 20 49
27 28 33 -28 9 -30 -14 -55 -21 -55 -16 0 5 13 14 29 19 38 13 66 64 51 91
-13 25 -13 41 0 21 8 -13 10 -13 10 2 0 9 2 23 5 31 4 10 -1 13 -17 12 -15 -1
-22 -8 -21 -19 0 -10 -2 -15 -5 -12 -3 3 -20 -6 -39 -20 l-33 -25 0 23 c0 37
-14 52 -31 32 -11 -14 -11 -18 6 -31 17 -14 18 -15 2 -9 -11 3 -16 2 -12 -5 4
-6 -1 -19 -10 -29 -12 -13 -13 -20 -4 -26 9 -5 9 -10 -2 -18 -15 -12 -44 -66
-41 -78 1 -5 -4 -8 -10 -8 -7 0 -22 -13 -33 -29 -11 -17 -21 -28 -23 -26 -6 5
25 60 42 74 17 14 21 31 8 31 -5 0 -18 -9 -30 -20 -23 -22 -25 -20 -22 22 1
16 -3 28 -9 28 -19 0 -12 39 9 50 11 6 20 20 20 31 0 11 -4 17 -10 14 -5 -3
-10 -1 -10 6 0 7 -7 4 -15 -7 -13 -18 -14 -17 -12 11 1 17 13 39 27 52 23 21
24 22 5 23 -18 1 -17 2 4 11 19 7 22 14 17 35 -5 20 -3 24 10 22 9 -2 19 3 21
10 3 6 -1 12 -7 12 -18 0 -55 -33 -55 -50 0 -8 -7 -15 -15 -16 -24 -1 -32 7
-20 21 18 22 -76 12 -100 -10 -23 -21 -27 -4 -5 19 21 21 19 46 -5 46 -12 0
-20 -7 -20 -17 0 -9 -2 -14 -5 -12 -8 9 7 79 17 79 6 0 8 -6 5 -14 -3 -8 0
-16 7 -19 14 -6 19 60 5 69 -5 3 -9 0 -9 -5 0 -6 -9 -11 -20 -11 -13 0 -20 -7
-20 -20 0 -11 -5 -20 -11 -20 -6 0 -8 22 -5 61 5 51 3 59 -8 50 -10 -8 -16 -8
-25 3 -9 11 -9 16 0 22 8 4 9 3 5 -4 -4 -7 -3 -12 3 -12 5 0 9 15 9 33 -2 45
9 104 22 125 9 13 10 8 5 -23 l-6 -40 25 40 c14 22 26 33 26 24 0 -8 -7 -24
-15 -35 -17 -22 -19 -44 -5 -44 6 0 10 6 10 13 0 6 10 23 21 37 11 14 18 19
14 13 -4 -9 1 -13 14 -13 21 0 30 25 11 32 -6 2 -2 13 10 25 32 35 24 42 -30
28 -28 -7 -53 -14 -55 -14 -16 -3 -22 -3 -39 -1 -10 1 -15 -3 -12 -8 3 -6 0
-13 -6 -15 -10 -4 -10 -7 0 -15 11 -7 10 -10 -3 -16 -10 -3 -15 -12 -11 -21 3
-8 1 -17 -3 -20 -5 -2 -12 10 -16 28 -14 57 -14 76 -2 73 7 -1 9 -1 4 1 -4 3
-5 9 -1 14 11 18 -8 8 -27 -13 l-19 -23 6 33 c6 27 4 31 -10 26 -17 -7 -16 -4
34 79 18 29 -16 21 -39 -10 -29 -39 -26 -11 4 44 14 25 24 48 21 50 -2 3 -12
-9 -21 -26 -20 -39 -25 -39 -22 -1 1 16 5 30 9 30 3 0 1 11 -5 25 -13 27 -22
31 -32 14 -5 -6 -13 -3 -22 10 -15 23 -10 43 10 36 17 -7 30 4 55 46 26 43 27
49 7 49 -16 0 -47 -42 -43 -58 2 -5 -1 -10 -7 -10 -11 0 -11 0 0 38 3 14 3 21
-2 15 -4 -5 -15 -16 -24 -23 -14 -11 -16 -9 -13 15 2 16 1 22 -2 15 -4 -9 -11
-5 -20 14 -12 22 -12 29 -1 38 7 6 19 20 27 30 14 17 13 18 -8 12 -16 -5 -22
-3 -22 7 0 10 10 14 32 13 18 0 32 4 34 12 1 7 0 8 -3 2 -7 -15 -23 -12 -23 5
0 17 -16 20 -25 5 -3 -5 -12 -7 -21 -3 -10 4 -12 9 -4 18 8 9 6 14 -5 19 -9 3
-15 0 -15 -10 0 -23 -17 -7 -22 21 -3 14 0 29 7 33 20 12 37 50 25 57 -7 4 -7
11 -2 18 10 12 24 60 27 88 1 9 5 28 9 43 4 17 2 26 -5 26 -8 0 -8 4 1 15 7 8
8 15 3 15 -10 0 -73 -74 -73 -85 0 -4 -8 -14 -17 -23 -16 -16 -16 -16 -10 1 4
10 7 30 7 43 0 16 4 23 11 18 16 -10 102 78 86 89 -7 5 -4 6 11 2 13 -4 22 -2
22 4 0 6 12 14 26 17 19 5 22 9 12 15 -8 6 1 9 28 9 41 0 87 31 65 44 -5 4
-15 -2 -21 -11 -8 -13 -13 -14 -16 -5 -3 6 -14 12 -25 12 -11 0 -19 7 -19 16
0 12 7 15 25 12 13 -3 22 -1 19 4 -3 4 2 11 10 14 8 3 18 14 21 25 4 12 16 19
31 19 13 0 24 4 24 9 0 22 -47 6 -70 -25 -19 -24 -30 -31 -47 -28 -14 4 -25 0
-32 -13 -10 -17 -10 -17 -11 0 0 9 -4 17 -10 17 -18 0 -11 -28 11 -43 13 -9
16 -17 10 -22 -6 -3 -11 -15 -11 -26 0 -22 -19 -26 -21 -4 -1 8 -3 20 -4 25
-1 6 -3 17 -4 26 0 8 -5 12 -11 9 -5 -3 -10 1 -10 9 0 8 5 18 10 21 6 4 8 11
4 16 -3 5 -9 7 -14 4 -5 -3 -12 0 -16 7 -4 7 -4 10 0 7 4 -4 22 6 39 22 26 24
34 27 42 16 12 -17 28 -4 37 31 5 19 4 21 -8 11 -8 -6 -14 -19 -14 -28 0 -13
-2 -13 -9 -2 -9 14 26 64 39 56 4 -3 13 2 20 10 18 22 28 10 24 -27 -3 -27 -1
-30 7 -15 5 9 8 21 4 26 -3 5 1 12 7 14 10 4 10 6 1 6 -7 1 -10 8 -7 16 5 11
2 13 -11 9 -14 -6 -16 -3 -10 16 5 16 4 20 -5 15 -6 -4 -10 -15 -7 -25 3 -11
-1 -21 -7 -23 -8 -3 -11 4 -8 23 2 15 -5 49 -17 74 -11 26 -21 50 -22 54 0 4
-6 16 -11 26 -8 15 -7 22 8 33 10 7 13 13 7 13 -14 0 -13 40 1 58 7 10 5 16
-5 23 -12 7 -12 9 2 9 26 0 37 40 23 80 -12 32 -13 33 -15 10 -1 -14 -1 -30 0
-36 0 -5 -8 -19 -18 -31 -13 -13 -16 -25 -10 -34 14 -23 10 -32 -7 -18 -15 12
-16 11 -9 -11 6 -20 1 -17 -24 14 -18 22 -29 46 -26 54 3 8 -2 26 -11 39 -8
14 -13 31 -10 38 3 8 0 12 -7 9 -12 -4 -47 86 -63 161 -4 17 -10 35 -14 40 -5
6 -17 34 -28 63 -16 41 -17 52 -7 52 8 0 18 7 23 15 7 14 11 13 28 -6 10 -12
13 -19 7 -15 -8 4 -13 1 -13 -8 0 -19 -16 -21 -23 -3 -7 20 -17 3 -11 -20 4
-14 11 -19 25 -16 12 3 19 0 19 -8 0 -10 3 -10 12 -1 7 7 18 12 26 12 7 0 1
-10 -13 -23 -19 -16 -26 -30 -23 -47 4 -24 5 -23 23 12 10 21 26 40 34 43 12
4 17 22 19 72 3 63 11 82 36 83 6 0 3 -6 -6 -13 -10 -7 -18 -29 -19 -52 -3
-52 11 -145 21 -145 4 0 17 19 28 43 12 23 21 35 22 27 0 -9 -7 -26 -16 -38
-8 -12 -12 -22 -7 -22 12 0 35 16 34 24 -3 18 0 26 9 26 5 0 7 -7 4 -15 -11
-28 34 -17 51 13 9 15 14 20 12 12 -6 -21 75 -26 92 -6 20 24 -25 32 -52 9
-19 -16 -20 -16 -8 -1 13 18 10 22 -20 19 -8 -1 -26 3 -40 8 l-24 10 26 0 c15
1 32 8 39 16 7 8 16 13 20 10 5 -3 12 4 15 16 4 11 9 18 12 16 2 -3 0 -15 -7
-26 -6 -12 -7 -21 -1 -21 5 0 12 6 15 13 4 6 4 2 2 -11 -3 -17 0 -22 12 -20
25 4 45 27 38 43 -4 10 1 15 14 15 11 0 20 -7 20 -15 0 -8 5 -15 11 -15 6 0 9
6 6 13 -3 8 6 27 19 43 25 29 25 29 18 4 -3 -14 -10 -29 -15 -34 -5 -6 -9 -16
-9 -24 0 -12 3 -12 15 -2 8 7 15 20 15 29 0 22 23 71 33 71 4 0 3 -10 -4 -22
-10 -18 -9 -20 5 -15 10 4 15 3 11 -3 -3 -6 -1 -10 4 -10 6 0 11 9 11 19 0 11
12 29 26 40 24 19 24 26 1 22 -5 -1 -6 3 -2 8 3 6 13 8 23 5 16 -5 16 -5 0 6
-25 15 -52 9 -58 -14 -8 -29 -27 -30 -34 -1 -4 14 -13 25 -20 25 -10 0 -12 7
-8 22 3 14 2 19 -6 14 -7 -4 -12 -14 -12 -23 0 -13 -3 -13 -27 2 -18 12 -28
14 -31 7 -2 -7 -14 -12 -27 -12 -24 0 -43 -17 -62 -59 -12 -24 -13 -23 -10 21
1 31 -2 49 -10 53 -7 2 -13 -1 -13 -8 0 -18 -35 -37 -50 -27 -8 5 -18 6 -22 4
-4 -3 -5 3 -2 13 5 16 4 16 -10 -1 -9 -11 -16 -29 -16 -40 1 -21 1 -21 15 -2
13 17 15 18 15 3 0 -9 -4 -17 -10 -17 -5 0 -10 -5 -10 -11 0 -6 7 -9 15 -5 23
8 17 -7 -9 -26 -20 -15 -25 -15 -30 -3 -3 8 -1 17 4 20 14 9 12 25 -2 23 -7
-2 -11 4 -9 12 8 31 -1 71 -13 59 -3 -3 -6 -24 -7 -48 -3 -35 -8 -45 -27 -52
-33 -13 -40 -11 -47 10 -3 11 3 34 16 55 28 48 11 46 -22 -3 -21 -30 -24 -42
-16 -57 8 -16 7 -17 -4 -6 -7 7 -12 28 -11 49 2 21 -1 34 -5 29 -4 -4 -8 -13
-8 -19 0 -7 -8 -11 -18 -11 -9 1 -14 -2 -11 -7 3 -5 -6 -14 -20 -20 -21 -10
-23 -15 -15 -31 16 -29 4 -32 -14 -4 -16 24 -16 26 7 43 13 10 27 30 31 43 7
23 5 22 -22 -8 -28 -31 -31 -31 -46 -14 -17 19 -51 92 -42 92 2 0 -4 16 -15
36 -12 20 -37 77 -57 127 -54 139 -197 447 -255 550 -84 149 -197 313 -259
376 -49 49 -249 181 -275 181 -3 0 -19 11 -35 24 -15 13 -48 31 -71 39 -24 9
-87 32 -141 51 -54 19 -168 52 -253 73 l-156 37 -55 96 c-31 52 -68 115 -84
140 -74 120 -192 341 -210 395 -12 33 -29 76 -39 95 -61 115 -117 293 -144
460 -9 52 -18 106 -21 120 -5 22 -29 150 -95 505 -11 55 -29 145 -41 200 -11
55 -25 118 -29 140 -11 51 -103 417 -130 515 -31 110 -89 276 -121 345 -15 33
-48 104 -73 158 -139 301 -281 449 -626 654 -180 107 -217 125 -367 177 -168
58 -300 109 -393 151 -101 46 -265 106 -303 111 -18 2 -50 -2 -72 -10z m1095
-2404 c0 -5 10 -14 23 -21 12 -7 38 -32 57 -57 31 -40 39 -44 77 -44 37 0 43
-3 49 -24 8 -35 -2 -46 -43 -46 -20 0 -52 -5 -70 -12 -28 -10 -36 -10 -42 1
-6 9 -38 13 -117 13 -144 1 -150 5 -107 76 18 31 33 60 33 65 0 4 8 19 18 32
14 20 26 24 70 25 28 0 52 -4 52 -8z m118 -628 c-4 -3 3 -15 14 -26 l21 -21
20 27 c15 21 22 24 33 15 8 -6 14 -17 14 -24 0 -7 8 -12 17 -11 13 1 19 -9 23
-41 4 -24 3 -43 -2 -43 -4 0 -11 -12 -14 -26 -5 -19 -11 -24 -26 -21 -10 3
-32 -2 -49 -10 -16 -8 -36 -13 -43 -10 -7 3 -18 -4 -25 -15 -10 -15 -22 -19
-59 -17 -26 1 -58 -3 -72 -8 -51 -21 -85 -24 -104 -10 -16 12 -23 12 -45 1
-35 -18 -78 -18 -88 1 -7 13 -13 10 -31 -15 -24 -32 -52 -40 -52 -15 0 8 -5
15 -11 15 -5 0 -8 4 -4 9 3 5 1 12 -5 16 -5 3 -10 33 -10 65 0 49 3 60 20 65
25 8 70 -22 70 -46 0 -10 5 -21 10 -24 6 -4 10 8 10 29 0 31 21 67 38 66 4 -1
18 -7 32 -14 22 -13 25 -12 35 8 16 31 95 31 111 -1 6 -13 14 -20 17 -16 11
10 8 43 -3 43 -5 0 -10 4 -10 10 0 16 72 41 100 35 14 -3 32 -1 40 5 16 10 37
14 28 4z m408 -749 c31 -14 84 -41 117 -62 42 -25 71 -36 93 -35 18 2 35 -2
39 -8 3 -5 10 -10 16 -10 14 0 11 28 -3 33 -7 2 -9 8 -5 13 5 5 14 1 22 -9 8
-12 15 -14 20 -8 11 19 26 12 25 -11 -1 -13 -1 -25 0 -28 10 -21 4 -91 -11
-120 -43 -87 -79 -96 -134 -34 -16 19 -36 34 -43 34 -7 0 -10 5 -7 10 3 6 1
10 -6 10 -7 0 -28 12 -48 28 -19 15 -42 30 -51 34 -13 6 -13 7 1 7 8 1 20 -4
27 -11 9 -9 12 -9 12 3 0 8 -16 23 -36 33 -20 9 -34 20 -30 23 3 3 12 0 21 -7
24 -20 31 -3 9 22 l-19 22 27 -20 c15 -10 25 -25 23 -31 -5 -15 11 -18 19 -4
4 5 4 15 1 23 -8 21 -113 81 -130 74 -9 -3 -15 0 -15 10 0 8 -4 12 -10 9 -5
-3 -10 3 -10 14 0 27 17 26 86 -4z m-56 -228 c0 -21 64 -116 79 -117 26 0 91
-34 91 -47 0 -8 7 -10 18 -6 15 6 15 3 -3 -18 -26 -31 -37 -39 -47 -33 -5 3
-8 2 -7 -3 4 -23 -2 -35 -17 -29 -8 3 -12 2 -9 -3 6 -11 -82 -87 -96 -83 -5 1
-9 -2 -9 -7 0 -11 -76 -61 -94 -61 -8 0 -17 -6 -19 -12 -3 -7 -6 6 -6 30 -1
23 4 42 9 42 6 0 10 15 10 33 0 18 9 57 20 87 11 30 20 69 20 87 0 18 5 33 10
33 6 0 10 9 10 20 0 28 23 100 32 100 5 0 8 -6 8 -13z m-6485 -2583 c-7 -62
-18 -121 -24 -132 -6 -12 -13 -40 -16 -63 -4 -32 -2 -44 12 -55 14 -9 15 -16
6 -24 -8 -9 -13 -7 -18 10 -4 11 -12 19 -18 17 -15 -5 -38 -75 -26 -82 5 -4 9
-15 9 -26 0 -14 -6 -19 -18 -17 -11 2 -27 -3 -36 -11 -27 -23 -45 2 -21 29 16
17 17 25 7 40 -7 11 -12 51 -12 89 0 46 -4 71 -12 75 -7 3 -4 4 8 1 14 -4 29
5 51 30 17 19 34 41 36 48 3 7 6 4 6 -6 1 -10 -5 -25 -11 -33 -26 -30 -33 -40
-46 -62 -13 -23 -9 -42 9 -42 6 0 7 5 4 10 -3 6 3 10 14 10 15 0 21 6 21 21 0
11 7 27 15 35 8 9 15 29 15 45 0 17 6 40 12 52 7 12 13 29 13 37 1 18 15 89
21 109 11 35 11 -3 -1 -105z m1595 -599 c-6 -8 -9 -23 -5 -34 3 -10 1 -22 -5
-26 -13 -8 -13 -45 0 -45 6 0 4 -10 -4 -22 -16 -27 -23 -68 -31 -193 -3 -49
-8 -102 -11 -117 -7 -33 2 -35 32 -7 14 13 24 17 29 10 3 -6 -7 -19 -24 -29
-17 -9 -37 -33 -45 -52 -15 -33 -15 -29 -10 75 6 116 19 266 30 325 4 24 3 31
-4 21 -5 -7 -15 -12 -21 -10 -8 3 -5 12 9 26 11 12 20 31 20 42 0 33 11 51 32
51 17 0 18 -3 8 -15z m678 -392 c17 -4 21 -10 16 -25 -3 -10 0 -25 6 -33 9
-11 4 -21 -24 -50 -20 -20 -36 -40 -36 -45 0 -6 -5 -10 -10 -10 -12 0 -1 53
12 58 4 2 8 12 8 23 0 11 8 32 18 46 9 15 12 24 5 20 -6 -4 -14 -1 -16 5 -7
17 -46 -30 -47 -54 0 -10 -8 -18 -17 -18 -12 0 -18 -8 -19 -24 -1 -13 -9 -39
-19 -59 -9 -20 -15 -42 -12 -49 3 -7 11 2 19 21 15 34 34 29 21 -6 -8 -21 -35
-43 -44 -37 -7 4 -29 -49 -29 -67 0 -20 18 -7 24 16 4 14 11 25 17 25 7 0 8
-7 4 -17 -4 -10 -10 -29 -13 -43 -5 -28 -20 -50 -34 -50 -16 0 -21 32 -7 41
12 8 11 11 -3 22 -11 9 -14 18 -8 27 4 7 6 19 3 27 -3 7 0 13 6 13 11 0 25 28
37 74 5 21 3 23 -20 19 -14 -3 -26 -10 -27 -17 0 -6 -3 -22 -5 -36 -3 -14 -6
-38 -8 -54 -2 -16 -8 -31 -14 -35 -5 -3 -12 -19 -16 -34 -4 -15 -11 -25 -16
-22 -14 9 -19 -8 -22 -69 -2 -38 -6 -56 -15 -56 -16 0 -17 -12 -2 -27 7 -7 7
-13 1 -17 -15 -9 -35 60 -28 94 4 24 2 28 -12 24 -12 -4 -11 -2 3 7 11 6 22
13 24 15 2 2 -2 11 -10 21 -8 9 -9 14 -3 10 7 -4 14 4 17 21 3 15 8 37 12 50
11 35 -13 27 -29 -10 -14 -32 -14 -30 -12 44 1 43 5 81 9 84 6 7 11 -18 8 -38
0 -5 4 -8 10 -8 7 0 9 9 6 21 -3 13 2 30 16 45 27 31 42 31 21 -1 -9 -14 -13
-32 -9 -42 6 -17 7 -16 17 2 6 11 21 30 34 41 13 12 24 26 24 33 0 6 6 11 14
11 7 0 17 10 21 23 4 12 8 25 10 30 1 4 3 11 4 15 0 4 11 20 22 34 22 27 23
27 58 11 20 -8 46 -18 59 -20z m12 -257 c-13 -35 -13 -46 1 -46 6 0 13 9 16
21 4 15 8 17 14 8 4 -7 1 -26 -8 -43 -8 -16 -17 -43 -20 -59 -4 -28 -10 -38
-43 -74 -8 -9 -14 -18 -12 -20 7 -9 1 -23 -8 -18 -6 4 -8 16 -4 28 6 20 5 20
-13 -3 -11 -14 -22 -32 -25 -40 -2 -8 -15 -15 -28 -15 -20 0 -24 -5 -23 -27 2
-46 3 -49 11 -44 5 3 28 -13 51 -35 22 -22 46 -37 51 -34 6 3 10 2 10 -4 0
-11 -60 -9 -78 3 -6 4 -9 14 -6 24 2 9 -4 0 -14 -21 -10 -20 -21 -34 -24 -31
-3 3 1 18 9 34 18 37 9 53 -27 45 -27 -6 -27 -5 -24 35 2 37 43 123 44 93 0
-7 7 -13 15 -13 14 0 85 100 85 121 0 6 7 17 16 26 11 12 14 26 9 55 -6 32 -3
42 11 53 24 17 27 14 14 -19z m7360 -666 c4 -7 12 -10 17 -7 11 7 25 -2 39
-28 7 -11 19 -19 28 -17 9 2 16 -2 16 -7 0 -20 44 -51 72 -51 21 0 28 -5 28
-20 0 -11 -4 -20 -10 -20 -5 0 -10 -4 -10 -10 0 -5 7 -10 15 -10 9 0 14 -8 12
-22 -2 -19 2 -22 21 -20 16 2 22 -2 22 -15 0 -15 -2 -16 -11 -3 -8 12 -9 10
-7 -10 3 -27 20 -50 37 -50 12 0 15 -26 4 -33 -5 -2 -2 -2 4 -1 22 5 38 -71
24 -116 -10 -33 -16 -40 -36 -40 -28 0 -29 -4 -13 -50 10 -30 9 -35 -10 -51
-26 -20 -27 -37 -7 -66 10 -15 12 -29 6 -45 -4 -13 -6 -28 -4 -34 2 -7 -8 -14
-22 -18 -22 -6 -25 -12 -25 -47 0 -36 2 -40 20 -34 11 4 20 2 20 -4 0 -6 -5
-11 -12 -11 -6 0 -4 -8 7 -20 17 -18 16 -19 -11 -26 -22 -6 -31 -3 -42 14 -9
14 -25 22 -43 22 -15 0 -34 7 -43 15 -8 8 -22 15 -30 15 -9 0 -16 6 -16 14 0
8 -9 18 -20 21 -11 3 -20 13 -20 21 0 8 -4 14 -9 14 -5 0 -13 29 -16 64 -6 49
-10 63 -21 59 -8 -3 -14 -14 -14 -24 0 -26 -26 -35 -45 -15 -9 9 -12 16 -6 16
6 0 11 9 11 19 0 14 5 18 20 14 15 -4 20 0 20 17 0 12 7 28 15 36 8 9 15 29
15 45 0 18 5 29 14 29 14 0 28 48 31 105 1 31 -15 75 -27 75 -5 0 -8 5 -8 10
0 6 6 10 14 10 21 0 31 21 15 30 -7 5 -17 6 -21 4 -4 -3 -8 28 -9 68 0 50 -3
67 -9 53 -7 -16 -9 -17 -9 -3 -1 9 -7 18 -13 21 -7 2 -2 8 12 11 23 6 25 12
22 42 -2 19 -8 34 -13 34 -5 0 -9 9 -9 19 0 11 -6 22 -12 24 -7 3 0 4 15 3 16
-2 32 -9 37 -16z m-7485 -1550 c5 -16 15 -20 46 -20 37 0 39 -2 39 -30 0 -23
4 -30 20 -30 13 0 20 -7 20 -20 0 -13 -7 -20 -20 -20 -11 0 -20 -6 -20 -14 0
-9 -14 -15 -40 -18 -33 -3 -40 0 -40 14 0 10 -7 18 -16 18 -8 0 -22 6 -30 14
-16 17 -19 86 -3 86 6 0 8 9 4 20 -5 15 -2 20 14 20 11 0 22 -9 26 -20z"/>
<path d="M14790 4682 c-13 -15 -26 -38 -27 -52 -5 -35 -24 -80 -34 -80 -4 0 0
13 9 30 14 25 15 31 3 42 -8 7 -11 8 -8 2 4 -6 0 -20 -8 -30 -8 -10 -15 -30
-16 -44 -1 -17 -3 -20 -6 -7 -2 9 -9 17 -14 17 -5 0 -9 7 -9 15 0 12 -4 14
-17 7 -11 -7 -17 -24 -18 -51 -1 -22 -3 -43 -6 -46 -7 -6 -8 0 -12 87 -3 68
-17 102 -32 77 -5 -8 -4 -10 3 -5 15 9 15 -16 0 -66 -8 -26 -21 -44 -40 -54
-15 -8 -28 -10 -28 -5 0 5 5 11 11 13 6 2 9 15 6 28 l-4 25 -8 -22 c-4 -13
-11 -23 -16 -23 -5 0 -3 11 3 25 6 14 15 25 19 25 4 0 10 7 13 16 3 8 2 12 -4
9 -6 -4 -10 6 -10 22 -1 26 -2 26 -14 10 -12 -15 -14 -15 -19 -3 -4 9 -2 18 3
21 6 4 10 11 10 18 0 6 -8 0 -17 -13 -36 -52 -47 -60 -56 -47 -6 7 -6 5 -2 -8
15 -39 17 -75 6 -75 -6 0 -11 8 -11 17 0 14 -3 13 -16 -5 -8 -12 -20 -22 -26
-22 -6 0 -3 10 8 21 19 22 19 22 -3 10 -23 -12 -53 -5 -53 12 0 6 -13 -2 -29
-17 -19 -19 -31 -24 -36 -16 -4 6 -13 9 -21 6 -11 -4 -11 -2 -2 13 13 21 4 56
-12 46 -5 -3 -10 -1 -10 5 0 6 -4 8 -10 5 -5 -3 -10 -1 -10 4 0 6 -10 10 -22
10 -17 -1 -19 -2 -5 -6 9 -2 17 -8 17 -13 0 -5 -8 -14 -17 -19 -17 -10 -17
-10 0 -11 12 0 17 -8 16 -27 -1 -18 -3 -22 -6 -10 -4 14 -8 15 -18 7 -10 -8
-19 -8 -34 0 -15 8 -21 8 -21 0 0 -6 -4 -9 -10 -5 -5 3 -17 -3 -27 -13 -41
-42 -98 -115 -105 -132 -10 -26 1 -60 18 -53 8 3 14 1 14 -5 0 -6 -5 -12 -11
-14 -9 -3 -9 -10 0 -27 12 -22 13 -22 27 -4 13 16 13 16 5 -8 -10 -27 -5 -69
8 -69 4 0 8 -9 9 -20 4 -45 6 -50 18 -50 17 0 27 17 12 22 -7 3 -9 12 -4 23 6
17 9 17 17 5 8 -11 9 -4 5 25 -3 22 -6 46 -6 53 0 6 -4 12 -10 12 -5 0 -10 -8
-10 -19 0 -10 -7 -24 -15 -31 -23 -19 -20 22 4 49 16 19 22 20 39 10 12 -8 18
-21 16 -38 -2 -15 -1 -18 2 -8 10 33 69 8 89 -38 7 -17 9 -15 14 15 4 23 9 31
14 23 14 -21 27 -15 42 20 11 26 15 29 20 14 4 -9 2 -23 -4 -31 -9 -10 -8 -15
3 -19 16 -7 13 -50 -4 -55 -13 -5 -13 -32 1 -32 5 0 7 -5 3 -11 -6 -10 11 -28
27 -29 13 0 18 29 7 36 -7 4 -8 3 -4 -4 4 -7 1 -12 -9 -12 -13 0 -14 3 -3 23
17 31 18 87 1 87 -7 0 -13 5 -13 10 0 6 6 10 14 10 14 0 17 72 3 86 -4 4 -7
14 -7 23 0 11 8 7 23 -13 21 -26 24 -27 39 -12 9 9 19 16 22 16 8 0 -6 -34
-16 -41 -5 -3 2 -26 15 -50 28 -49 61 -63 72 -30 3 12 10 21 15 21 5 0 3 -15
-4 -32 -7 -18 -11 -39 -8 -47 3 -9 0 -11 -8 -6 -9 6 -9 3 -1 -14 7 -11 16 -21
22 -21 6 0 8 -4 5 -9 -3 -5 -1 -23 5 -41 9 -23 14 -28 20 -18 6 9 8 5 8 -12
-2 -34 25 -132 34 -124 4 4 7 4 7 1 0 -3 -9 -11 -21 -18 -18 -9 -20 -8 -15 8
2 10 -1 32 -9 48 -12 27 -13 28 -14 8 -1 -13 -5 -23 -11 -23 -13 0 -13 12 0
46 9 24 9 25 -5 14 -12 -10 -15 -10 -15 1 0 8 -7 26 -14 42 -8 15 -11 27 -6
27 5 0 16 -12 24 -27 8 -16 15 -21 15 -13 0 20 -52 112 -63 114 -13 2 -15 -48
-2 -56 6 -4 2 -14 -12 -27 -13 -11 -19 -22 -13 -25 6 -4 7 -14 4 -22 -3 -9 4
-28 16 -44 25 -34 26 -41 6 -34 -8 4 -13 10 -10 15 3 4 -4 13 -15 19 -17 9
-20 8 -20 -10 0 -13 4 -19 11 -14 7 4 10 1 7 -7 -3 -8 2 -30 10 -49 8 -19 19
-46 24 -60 10 -24 11 -24 18 -5 7 16 9 12 9 -17 1 -37 13 -49 27 -27 5 8 9 8
14 -1 6 -9 11 -7 19 9 7 11 17 21 24 21 8 0 8 -3 1 -8 -5 -4 -16 -22 -23 -39
-8 -18 -17 -33 -22 -33 -5 0 -9 -11 -9 -24 0 -17 7 -25 25 -28 14 -3 28 -1 31
3 3 5 -4 9 -15 9 -18 0 -20 3 -9 19 11 18 43 35 61 32 4 -1 7 6 7 14 0 8 5 15
10 15 21 0 9 20 -15 26 -14 3 -25 11 -25 16 0 6 7 8 15 4 12 -4 14 0 9 21 -5
17 -3 24 4 19 6 -3 13 -20 17 -36 4 -17 10 -28 15 -25 5 3 12 0 17 -8 11 -18
59 -47 78 -47 9 0 13 -5 10 -10 -7 -11 19 -42 28 -33 4 3 2 13 -3 23 -6 12 -5
17 5 17 8 0 11 -7 8 -16 -3 -9 9 -2 27 15 20 20 33 42 33 58 0 14 3 23 8 20
11 -6 31 44 23 57 -3 5 1 23 10 39 8 17 10 30 5 30 -5 0 -9 -4 -9 -10 0 -17
-27 -11 -34 7 -4 9 -7 55 -8 102 l0 86 -17 -56 c-9 -31 -23 -66 -32 -79 -14
-21 -16 -22 -22 -6 -4 9 -3 15 2 12 8 -6 25 23 37 63 5 19 3 23 -10 18 -12 -5
-16 -1 -16 15 0 17 3 19 12 10 20 -20 30 -13 26 18 -3 17 -1 33 4 36 4 3 8 9
8 14 0 9 -51 -7 -82 -25 -23 -14 -13 -59 11 -50 12 5 13 3 4 -6 -9 -9 -8 -17
4 -35 9 -15 11 -24 4 -24 -6 0 -11 5 -11 11 0 5 -4 7 -10 4 -5 -3 -7 0 -4 8 3
8 -2 20 -11 27 -8 7 -15 20 -15 29 0 22 -26 -29 -35 -70 -6 -25 -4 -30 6 -23
11 6 12 5 2 -8 -23 -28 0 -29 31 -1 l31 28 -27 -30 c-15 -16 -30 -42 -33 -57
-8 -30 -25 -29 -23 0 2 29 -23 93 -35 89 -7 -2 -16 -20 -21 -40 -5 -20 -13
-37 -18 -37 -11 0 -10 5 9 48 9 20 15 42 14 48 -2 16 29 39 53 39 29 0 32 32
7 66 -12 16 -17 30 -11 34 6 3 14 -5 20 -19 5 -14 11 -26 14 -26 2 0 14 30 26
68 12 37 28 77 36 89 8 12 14 29 14 37 0 14 29 31 38 21 3 -3 0 -5 -6 -5 -14
0 -58 -93 -67 -142 -6 -34 -5 -38 14 -38 26 0 49 39 30 51 -13 8 -12 10 10 13
24 3 30 22 20 60 -6 21 -9 40 -6 42 2 3 10 -16 17 -41 10 -35 10 -48 0 -60
-17 -20 -8 -38 19 -40 15 -1 26 6 34 22 10 24 27 31 27 12 0 -5 5 -7 10 -4 6
4 8 10 5 15 -3 5 3 11 12 14 10 4 29 22 43 40 14 19 27 33 28 31 6 -6 -32 -65
-41 -65 -4 0 -5 -5 -2 -10 4 -6 2 -9 -3 -8 -9 3 -12 -2 -12 -20 0 -4 17 -8 38
-9 21 -1 44 -3 51 -5 8 -2 15 6 17 16 3 22 24 37 38 29 5 -4 4 -9 -5 -12 -15
-6 -18 -29 -7 -46 4 -7 -15 -11 -53 -12 -32 0 -56 3 -53 8 7 12 -2 11 -29 -3
-28 -17 -38 -30 -32 -45 2 -7 0 -13 -5 -13 -6 0 -10 8 -10 17 0 13 -3 14 -11
6 -16 -16 -4 -44 16 -37 9 4 15 1 15 -9 0 -19 32 -16 38 4 7 27 25 59 34 59
13 0 9 -22 -6 -39 -17 -19 -36 -115 -28 -144 3 -14 1 -18 -6 -13 -8 5 -12 -2
-12 -19 0 -21 -4 -26 -16 -21 -11 4 -15 2 -11 -6 2 -7 1 -22 -3 -33 -4 -12 -1
-26 11 -38 10 -11 15 -27 12 -36 -5 -13 -2 -12 16 4 21 18 23 26 17 78 -4 42
-3 56 6 51 8 -5 9 4 4 34 -5 35 -3 43 16 57 22 15 23 14 31 -15 4 -16 11 -30
15 -30 10 0 72 68 72 79 0 5 -7 14 -15 21 -12 10 -18 10 -32 -1 -16 -13 -17
-12 -5 2 10 14 10 20 -3 33 -9 9 -12 16 -6 16 5 0 23 -14 40 -32 25 -27 32
-30 45 -19 20 17 21 1 1 -25 -8 -10 -15 -25 -15 -33 0 -11 4 -11 18 2 23 21
36 22 28 2 -3 -8 0 -15 7 -15 9 0 9 -2 0 -8 -15 -10 -24 -70 -12 -78 5 -3 13
5 18 18 6 13 10 17 10 11 1 -7 7 -13 15 -13 9 0 12 -8 8 -25 -2 -15 0 -25 7
-25 22 0 0 197 -27 244 -3 5 -13 -2 -23 -15 -23 -30 -26 -4 -4 28 8 12 12 28
9 37 -4 11 -1 16 10 16 9 0 16 5 16 10 0 6 -5 10 -10 10 -6 0 -5 8 2 20 13 20
48 28 48 10 0 -5 -8 -14 -17 -20 -16 -9 -15 -10 5 -5 21 6 33 -10 11 -17 -6
-2 -8 -14 -4 -31 4 -15 12 -24 18 -20 6 4 8 -2 4 -16 -3 -12 -1 -38 5 -59 11
-37 13 -58 16 -119 2 -28 6 -33 27 -33 20 0 24 -4 23 -25 -2 -23 -28 -37 -28
-15 0 6 5 10 10 10 6 0 10 5 10 10 0 16 -17 12 -24 -6 -4 -9 -1 -23 5 -30 7
-8 9 -29 6 -49 -3 -19 -2 -35 4 -35 5 0 9 11 9 25 0 14 5 25 10 25 17 0 11
-36 -9 -54 -19 -18 -47 -14 -36 5 4 5 0 9 -8 9 -9 0 -17 14 -21 35 -4 19 -11
37 -16 40 -15 9 -30 -4 -24 -20 4 -8 10 -13 14 -10 8 5 13 -6 25 -57 5 -20 5
-21 -5 -5 -13 21 -30 14 -30 -13 0 -10 -5 -22 -11 -25 -13 -9 -27 4 -14 13 24
17 36 52 24 73 -6 11 -13 18 -16 15 -4 -3 -11 4 -18 17 -6 12 -17 21 -23 20
-6 -2 -9 4 -6 12 6 15 -11 22 -19 8 -7 -12 12 -55 21 -49 5 3 7 -6 4 -19 -5
-28 -22 -34 -22 -9 0 9 -10 34 -22 55 -17 30 -19 42 -10 51 9 9 12 8 12 -8 0
-12 3 -15 8 -7 4 7 8 27 7 45 0 26 -4 34 -22 36 -13 2 -23 -2 -23 -8 0 -7 7
-10 15 -7 8 4 17 2 20 -2 2 -5 -4 -11 -15 -14 -11 -3 -20 -1 -20 4 0 5 -4 9
-10 9 -5 0 -10 -7 -10 -15 0 -8 -4 -15 -10 -15 -5 0 -7 -6 -4 -14 4 -10 -2
-14 -20 -12 -29 1 -41 24 -31 56 4 12 2 20 -5 20 -9 0 -10 -13 -6 -42 4 -24 7
-58 7 -75 0 -18 5 -33 10 -33 5 0 9 -7 9 -15 0 -8 7 -15 15 -15 8 0 15 -5 15
-12 0 -6 9 -3 21 8 28 25 21 -2 -9 -32 -28 -29 -36 -30 -29 -3 5 17 3 18 -9 8
-18 -15 -31 -4 -15 14 8 11 6 18 -11 33 -12 10 -18 14 -14 7 4 -7 -13 -33 -39
-63 -25 -28 -45 -57 -45 -65 0 -8 -4 -15 -10 -15 -5 0 -10 -9 -10 -19 0 -11
-5 -23 -11 -27 -6 -3 -9 -15 -6 -25 3 -10 0 -20 -7 -23 -7 -3 -6 -8 4 -15 12
-9 12 -11 1 -11 -10 0 -12 -10 -7 -42 4 -23 12 -46 19 -50 6 -4 8 -10 5 -14
-9 -9 -41 23 -34 35 3 5 1 22 -4 38 -8 21 -7 41 3 74 13 42 13 47 -4 57 -25
16 -32 15 -25 -4 3 -8 2 -12 -4 -9 -24 15 -30 -8 -8 -32 15 -16 17 -22 6 -18
-9 4 -18 1 -21 -7 -2 -7 -3 -5 -1 5 1 11 -7 22 -22 29 -13 6 -26 19 -29 28 -3
9 -26 31 -50 49 -36 26 -46 29 -51 18 -3 -9 1 -28 9 -44 8 -15 12 -34 10 -40
-3 -8 4 -13 15 -13 11 0 22 -8 26 -17 3 -10 9 -23 12 -30 3 -8 -2 -10 -16 -6
-21 6 -21 5 -7 -28 9 -22 11 -43 6 -57 -5 -13 -4 -22 1 -22 5 0 7 -6 4 -14 -3
-7 -15 -12 -27 -11 -12 1 -30 3 -40 4 -23 1 -14 17 14 24 15 4 19 2 15 -9 -3
-8 -1 -14 4 -14 14 0 12 24 -2 38 -9 9 -6 14 13 21 20 7 21 10 7 16 -9 3 -19
22 -22 41 -4 19 -12 34 -18 34 -6 0 -9 3 -5 6 3 3 0 20 -6 37 l-10 31 -12 -34
c-9 -26 -9 -37 -1 -43 6 -5 -4 -7 -24 -4 l-35 5 -1 -44 c-1 -27 4 -45 13 -48
7 -3 13 -10 13 -15 0 -17 -63 15 -71 35 -7 20 -3 34 11 34 4 0 5 -10 2 -22 -5
-22 -5 -22 11 -6 13 13 15 22 8 41 -6 14 -7 28 -4 31 4 3 -3 6 -15 6 -15 0
-22 -6 -22 -20 0 -11 -4 -20 -9 -20 -13 0 -23 48 -15 72 4 15 3 18 -6 13 -17
-10 -6 -102 20 -175 20 -58 26 -101 11 -85 -5 6 -15 35 -24 65 -45 160 -46
181 -17 212 10 12 16 26 13 32 -4 6 -8 5 -11 -4 -3 -8 -11 -21 -19 -28 -7 -7
-13 -27 -13 -44 0 -22 -4 -29 -14 -25 -19 7 -27 -27 -19 -77 4 -28 3 -37 -5
-32 -8 4 -11 41 -11 104 1 54 -3 98 -8 99 -6 2 -8 26 -5 53 5 53 -2 61 -25 33
-12 -16 -13 -15 -7 8 8 37 -21 47 -53 18 -12 -13 -23 -17 -23 -11 0 6 9 17 20
25 11 8 17 17 12 22 -4 5 -1 5 6 1 7 -4 19 -2 27 4 11 9 15 9 15 1 0 -6 -6
-11 -12 -11 -9 0 -8 -3 2 -10 9 -5 19 -5 27 2 16 13 17 104 2 114 -6 3 -20 27
-31 51 -22 50 -25 50 -38 2 -8 -30 -8 -32 4 -16 12 16 14 16 20 1 9 -23 8 -24
-18 -24 -30 0 -50 -24 -43 -52 6 -22 6 -22 -8 -4 -20 26 -19 29 10 60 14 15
25 31 25 36 0 4 3 16 7 26 4 12 3 15 -5 10 -7 -4 -12 -15 -12 -25 0 -19 -54
-64 -64 -54 -3 4 -7 16 -7 27 -1 14 -3 11 -8 -9 -4 -21 -13 -31 -29 -33 -12
-2 -22 -9 -22 -15 0 -7 -3 -23 -7 -37 l-6 -25 27 24 c14 14 26 30 26 38 0 7 9
13 20 13 16 0 19 -5 14 -30 -5 -24 -3 -30 10 -30 10 0 14 -5 11 -11 -4 -6 3
-13 14 -16 19 -5 20 -7 6 -17 -14 -10 -14 -15 -1 -47 8 -20 12 -39 9 -42 -3
-4 0 -13 6 -21 9 -11 9 -22 -2 -49 -8 -19 -20 -38 -26 -41 -16 -10 -13 3 4 20
19 19 19 48 0 64 -16 13 -36 6 -31 -13 1 -7 1 -8 -2 -4 -2 4 -10 3 -18 -4 -8
-6 -12 -15 -9 -19 3 -5 1 -11 -4 -14 -14 -9 -7 16 13 47 15 22 16 30 6 43 -11
12 -15 12 -21 2 -7 -10 -9 -9 -9 4 0 9 5 20 10 23 6 3 10 2 10 -3 0 -5 8 -12
18 -16 9 -3 24 -9 32 -12 8 -3 3 5 -12 19 -31 27 -36 39 -13 31 20 -8 20 18 0
56 -9 17 -17 30 -18 30 -2 0 -14 -14 -26 -31 l-23 -31 22 12 c12 6 24 9 27 6
3 -3 -2 -8 -11 -12 -9 -3 -16 -12 -16 -19 0 -7 -7 -18 -15 -25 -10 -9 -15 -9
-15 -1 0 6 -7 11 -15 11 -18 0 -37 34 -30 52 3 8 1 25 -5 39 -10 22 -10 22 -6
2 3 -16 -1 -23 -11 -23 -10 0 -14 6 -10 20 3 13 -1 21 -14 25 -10 4 -16 12
-12 21 3 7 0 14 -6 14 -6 0 -11 7 -11 16 0 14 -3 14 -15 4 -12 -10 -15 -10
-15 3 0 8 6 20 14 26 16 14 11 45 -12 63 -13 11 -14 10 -7 -12 4 -14 12 -28
17 -31 6 -4 6 -9 -1 -13 -6 -4 -11 -2 -11 3 0 6 -5 11 -11 11 -6 0 -8 -11 -4
-29 4 -21 2 -30 -11 -35 -21 -8 -20 -8 -29 32 -4 20 -3 32 4 32 6 0 15 19 21
41 7 27 18 43 31 46 10 3 19 14 19 24 0 29 17 23 29 -11 5 -16 13 -30 17 -30
12 0 -7 68 -36 126 -25 51 -29 55 -29 31 -1 -20 -7 -30 -21 -34 -25 -7 -26
-38 -2 -52 15 -9 14 -10 -7 -11 -24 0 -25 -7 -5 -54 5 -14 4 -17 -4 -12 -8 4
-12 0 -12 -11 0 -10 -4 -14 -8 -8 -4 6 -16 11 -27 13 -14 2 -16 0 -7 -6 7 -5
14 -23 14 -41 1 -17 5 -34 10 -37 4 -3 8 -15 8 -28 0 -12 5 -27 12 -34 9 -9 8
-12 -5 -12 -16 0 -41 -33 -31 -42 2 -3 -7 -3 -21 -1 -19 4 -25 1 -25 -12 0
-10 -8 -24 -17 -32 -17 -14 -17 -14 0 -9 25 8 21 -9 -8 -32 -29 -23 -32 -32
-10 -32 8 0 15 -4 15 -10 0 -5 -4 -10 -9 -10 -5 0 -11 -8 -13 -17 -2 -11 -9 0
-17 25 -13 38 -13 45 0 53 12 7 11 9 -3 9 -16 0 -34 -34 -30 -56 1 -7 -5 -15
-14 -18 -12 -5 -15 -2 -9 11 4 10 8 25 9 33 0 8 6 18 11 22 6 5 5 8 -2 8 -7 0
-13 7 -13 16 0 10 -6 14 -15 10 -8 -3 -15 -1 -15 4 0 6 -3 10 -7 10 -5 0 -8
-15 -8 -34 0 -23 4 -32 13 -29 15 6 12 -18 -3 -29 -6 -5 -5 -11 3 -16 10 -7
10 -11 -2 -21 -16 -14 -40 -6 -31 10 4 5 0 9 -8 9 -7 0 -14 -7 -14 -15 0 -8 5
-15 11 -15 6 0 5 -5 -2 -12 -15 -15 -16 -32 -2 -23 6 3 10 4 10 1 0 -3 -16
-13 -36 -21 -26 -11 -34 -19 -30 -30 4 -10 2 -14 -5 -9 -8 4 -9 -1 -4 -16 6
-19 4 -21 -15 -15 -28 9 -73 -30 -65 -56 3 -10 1 -20 -4 -24 -7 -3 -8 0 -5 9
9 24 -2 19 -20 -10 -13 -18 -14 -25 -4 -23 36 4 46 -1 40 -23 l-5 -22 23 22
c13 12 28 18 33 15 6 -4 -1 -15 -16 -27 -31 -25 -34 -36 -10 -36 12 0 8 -8
-15 -28 -36 -32 -40 -47 -16 -60 15 -8 15 -12 0 -40 -9 -17 -20 -34 -26 -37
-7 -4 -6 -13 1 -27 10 -18 9 -20 -6 -15 -11 5 -27 -4 -51 -28 -19 -20 -34 -38
-34 -41 0 -10 -40 -57 -40 -48 0 5 -5 1 -11 -9 -13 -22 -2 -38 11 -17 8 12 10
12 10 1 0 -9 8 -11 26 -7 35 9 124 68 124 84 0 15 -22 16 -37 1 -7 -7 -12 -5
-15 8 -4 16 1 19 28 19 24 0 34 -5 34 -15 0 -13 2 -14 9 -2 5 7 13 11 19 7 6
-4 10 1 10 11 -3 32 34 101 61 114 40 20 71 46 64 52 -3 4 7 12 23 18 25 9 26
12 11 18 -14 5 -11 9 18 20 23 8 35 18 31 26 -5 15 17 39 27 29 3 -3 3 4 0 16
-3 13 -11 19 -20 16 -8 -3 -11 -1 -8 4 11 17 -10 11 -33 -10 -12 -11 -26 -20
-32 -20 -5 0 -10 -13 -10 -30 0 -23 -5 -30 -19 -30 -11 0 -21 -5 -23 -12 -7
-20 -42 -14 -66 10 l-23 24 53 -4 c44 -2 53 0 56 15 2 9 -1 17 -7 17 -6 0 -11
-4 -11 -10 0 -5 -4 -10 -10 -10 -5 0 -7 7 -4 15 4 8 3 22 0 31 -6 16 -8 16
-24 0 -22 -19 -41 -21 -38 -3 5 31 25 46 82 61 68 18 84 20 69 8 -13 -9 -35
-49 -35 -63 0 -8 6 -7 18 3 38 34 58 39 81 19 11 -10 21 -23 21 -30 0 -6 6
-11 14 -11 8 0 17 -7 20 -16 4 -11 13 -13 28 -9 20 6 19 3 -7 -19 -16 -14 -38
-25 -47 -26 -10 0 -18 -5 -18 -11 0 -7 9 -9 24 -5 20 5 23 2 21 -18 -2 -13 -6
-35 -9 -48 -6 -22 -6 -22 6 2 7 14 13 27 15 29 4 6 71 -28 78 -39 10 -17 43
-11 58 10 9 13 22 18 43 15 16 -2 35 -4 42 -4 7 -1 10 -5 7 -11 -3 -5 -2 -10
3 -10 5 0 9 -7 9 -15 0 -8 -4 -15 -9 -15 -4 0 -8 5 -8 10 0 18 -18 10 -23 -10
-4 -16 0 -20 21 -20 14 0 22 -3 18 -7 -4 -4 -17 -8 -29 -8 -17 0 -21 -5 -19
-22 2 -16 -4 -23 -25 -27 -16 -4 -34 -15 -41 -26 -11 -17 -10 -20 8 -20 11 0
20 5 20 10 0 18 18 11 25 -10 3 -11 11 -20 16 -20 6 0 7 5 3 12 -5 8 -2 9 9 5
10 -3 17 -2 17 2 0 5 -7 12 -16 15 -8 3 -13 10 -9 15 6 11 53 -30 48 -41 -2
-3 3 -8 9 -11 7 -2 10 -7 6 -11 -3 -4 -16 -3 -27 4 -16 8 -21 8 -21 0 0 -7 -6
-10 -12 -7 -7 2 -25 -2 -39 -9 -25 -12 -27 -12 -22 6 4 15 1 18 -16 13 -12 -3
-21 -6 -21 -8 0 -2 36 -108 45 -134 5 -11 8 -11 23 1 9 9 22 13 29 11 15 -5
43 35 36 53 -3 9 2 12 22 8 19 -3 24 -1 19 7 -5 8 -3 9 5 5 8 -5 14 0 18 13 6
23 43 29 43 7 0 -7 9 -16 19 -19 15 -3 27 5 46 34 14 22 23 45 19 51 -4 6 -3
8 3 5 13 -8 26 20 16 35 -3 7 -1 8 5 4 15 -9 61 42 62 69 0 14 3 16 11 8 8 -8
8 -17 0 -31 -6 -10 -7 -22 -4 -26 3 -3 -1 -6 -10 -6 -15 0 -67 -58 -67 -74 0
-4 -27 -47 -60 -96 -50 -75 -59 -93 -50 -110 8 -16 6 -21 -12 -31 -19 -9 -21
-9 -10 2 6 7 12 20 12 28 -1 26 -30 -19 -30 -45 0 -15 10 -26 32 -35 20 -8 26
-15 17 -17 -8 -3 -17 -10 -21 -16 -5 -7 -8 -4 -8 7 0 25 -66 24 -75 -2 -3 -10
-16 -27 -28 -37 -12 -10 -16 -12 -9 -4 31 36 8 38 -43 3 -42 -27 -55 -42 -53
-57 2 -12 9 -20 16 -18 8 1 11 -2 7 -8 -3 -5 -1 -10 4 -10 6 0 11 3 11 8 0 4
12 21 26 37 14 17 23 24 19 18 -3 -7 -1 -13 5 -13 6 0 -4 -15 -24 -33 -19 -18
-38 -45 -42 -61 -5 -20 -11 -26 -23 -21 -12 5 -13 3 -5 -5 17 -17 54 5 54 30
0 11 5 20 11 20 5 0 8 4 5 8 -3 5 7 15 21 23 21 11 27 12 31 1 7 -22 41 15 35
39 -3 11 0 19 7 19 7 0 10 -6 7 -14 -3 -8 -1 -17 6 -19 8 -3 3 -11 -12 -22
-18 -14 -20 -19 -10 -26 8 -5 9 -9 4 -9 -6 0 -11 -10 -12 -22 -1 -11 -8 -25
-15 -29 -7 -4 -10 -10 -7 -13 3 -3 15 3 27 14 12 11 28 20 36 20 7 0 17 7 20
16 6 15 4 15 -11 3 -9 -8 -14 -9 -10 -2 4 6 3 15 -3 18 -8 5 -7 11 1 21 8 10
15 11 19 5 4 -7 14 -5 28 5 18 12 20 19 12 35 -7 13 -7 19 0 19 5 0 10 -4 10
-10 0 -20 25 -9 36 14 9 20 9 26 -4 31 -22 8 -4 22 36 28 20 3 37 0 46 -9 10
-9 17 -10 21 -4 4 6 10 8 15 5 5 -3 13 2 18 11 10 18 32 11 32 -9 0 -9 -2 -9
-8 0 -6 9 -17 1 -38 -26 -19 -26 -32 -35 -36 -28 -10 14 -30 -12 -21 -26 3 -5
-1 -13 -8 -18 -7 -4 -10 -11 -6 -15 4 -4 14 2 23 14 9 13 20 19 27 15 7 -4 18
-8 26 -8 16 0 25 -75 10 -75 -5 0 -5 -7 -2 -17 4 -10 2 -14 -4 -10 -6 4 -13
-2 -16 -13 -3 -11 -10 -20 -17 -20 -6 0 -8 5 -5 10 3 6 1 10 -5 10 -6 0 -9 -8
-6 -17 3 -10 -1 -42 -8 -70 -8 -29 -12 -53 -9 -53 3 0 0 -7 -7 -15 -9 -11 -10
-19 -3 -26 16 -16 26 6 28 57 2 47 14 73 16 33 1 -13 1 -29 0 -35 -2 -19 29
-25 45 -9 9 8 11 15 5 15 -6 0 -8 15 -6 36 5 33 4 34 -11 19 -9 -9 -19 -12
-23 -8 -3 4 -9 10 -14 14 -9 7 54 79 70 79 7 0 10 6 7 13 -6 17 30 51 48 44
14 -5 68 23 68 35 0 13 -17 9 -30 -7 -14 -17 -50 -20 -50 -5 0 6 9 18 20 27
29 25 25 38 -5 19 -14 -9 -30 -14 -35 -11 -6 3 -10 -4 -11 -17 l0 -23 -12 24
c-9 19 -9 25 1 29 7 2 9 9 5 15 -4 7 0 8 11 4 12 -5 29 2 50 20 34 30 51 43
134 98 72 49 114 96 100 113 -8 9 -14 9 -24 2 -9 -9 -11 -7 -7 8 5 21 -12 39
-22 22 -11 -18 -27 -11 -20 9 8 27 -49 59 -71 40 -12 -10 -13 -9 -8 5 9 24
-11 20 -29 -6 l-16 -23 3 25 c2 20 9 25 32 26 16 1 39 6 51 13 15 7 24 8 28 1
4 -6 3 -10 -2 -9 -38 7 -43 -11 -8 -28 22 -10 27 -8 45 14 18 23 22 22 19 -4
-1 -5 -5 -7 -10 -6 -11 4 -11 -8 0 -26 5 -8 16 -11 26 -8 13 6 15 3 10 -13 -5
-17 -2 -20 20 -18 17 2 44 22 80 61 30 32 55 62 55 66 0 4 13 17 29 29 l29 21
-12 -25 c-6 -13 -14 -24 -18 -24 -4 0 -14 -7 -23 -16 -13 -14 -14 -19 -3 -26
10 -7 8 -8 -4 -4 -14 4 -24 -6 -43 -44 -27 -54 -30 -64 -15 -55 6 3 7 -1 4 -9
-3 -9 -10 -16 -16 -16 -5 0 -6 -5 -3 -10 4 -6 12 -8 18 -4 7 3 1 -4 -13 -15
-28 -23 -45 -28 -34 -9 5 8 2 9 -10 5 -10 -4 -20 -7 -24 -7 -3 0 3 -7 14 -16
10 -8 14 -13 7 -10 -6 4 -17 0 -25 -7 -7 -7 -24 -21 -38 -31 -14 -10 -18 -16
-10 -14 8 3 24 -3 34 -14 19 -18 19 -18 -15 -12 -44 8 -41 8 -61 0 -10 -5 -16
-11 -13 -16 2 -4 -7 -13 -20 -20 -32 -17 -34 -45 -2 -36 12 4 44 12 71 20 46
12 125 71 112 83 -3 3 -12 0 -20 -6 -11 -9 -20 -10 -33 -2 -16 9 -16 10 5 11
29 0 72 28 72 46 0 8 4 14 9 14 5 0 14 12 19 28 8 21 11 23 11 7 1 -11 -8 -35
-19 -53 -11 -18 -20 -38 -20 -45 0 -6 -20 -31 -43 -54 -31 -31 -53 -44 -82
-48 -21 -2 -41 -9 -44 -13 -3 -5 -24 -15 -45 -23 -22 -8 -41 -21 -43 -30 -3
-9 -16 -22 -29 -28 -14 -6 -22 -16 -19 -21 3 -6 1 -10 -4 -10 -6 0 -11 5 -11
10 0 6 -10 10 -22 10 -17 0 -19 -3 -9 -9 16 -10 6 -49 -18 -69 -17 -14 -11
-13 39 6 8 3 4 -6 -9 -21 -30 -33 -17 -36 17 -4 22 19 24 20 18 3 -6 -16 -4
-17 9 -6 9 7 26 27 37 44 19 28 20 29 2 15 -33 -28 -41 -29 -40 -9 2 30 116
130 148 130 6 0 3 -7 -8 -15 -16 -12 -16 -14 -3 -15 19 0 43 25 35 38 -3 4 9
6 27 4 l32 -5 -30 -14 c-17 -8 -42 -31 -57 -51 -15 -20 -37 -50 -49 -65 l-22
-28 38 15 c20 9 42 13 48 9 6 -4 8 2 5 15 -4 12 -2 22 4 22 5 0 8 10 6 21 -2
17 6 27 35 42 21 11 41 16 45 13 3 -4 -4 -9 -16 -13 -12 -3 -22 -10 -22 -15 0
-5 -7 -16 -15 -24 -17 -17 -21 -49 -5 -39 6 3 10 1 10 -5 0 -7 7 -10 15 -6 18
6 20 -10 3 -20 -6 -4 -14 -2 -16 4 -5 17 -22 15 -22 -4 0 -8 4 -13 9 -10 5 4
11 2 13 -3 6 -18 63 20 93 62 17 23 39 43 49 45 10 2 16 0 12 -6 -7 -12 38
-22 55 -11 10 6 10 11 -1 23 -7 9 -10 19 -6 23 3 3 6 0 6 -7 0 -9 6 -8 20 5
11 10 20 13 20 7 0 -6 -4 -14 -10 -17 -5 -3 -10 -17 -10 -31 0 -17 -6 -24 -19
-24 -10 0 -23 -6 -29 -12 -10 -13 -12 -19 -12 -38 0 -5 -16 -12 -35 -16 -19
-3 -38 -11 -42 -17 -3 -6 -1 -7 5 -3 24 15 11 -12 -13 -28 -14 -9 -25 -22 -25
-29 0 -7 -9 -19 -20 -27 -11 -8 -20 -19 -20 -24 0 -5 -7 -18 -17 -28 -9 -11
-11 -18 -5 -18 7 0 12 5 12 10 0 6 5 10 11 10 22 0 54 36 53 58 -1 23 19 52
36 52 5 0 7 -7 4 -15 -4 -8 -2 -15 3 -15 12 0 5 -101 -8 -114 -5 -5 -12 -6
-16 -1 -5 4 -2 10 5 12 12 5 18 53 6 53 -3 0 -15 -5 -26 -11 -17 -9 -18 -13
-7 -20 11 -7 10 -9 -5 -9 -20 0 -20 0 -1 -14 18 -13 18 -14 -8 -9 -19 4 -29 1
-33 -12 -10 -25 10 -39 35 -26 17 10 21 9 21 -5 0 -9 -10 -25 -22 -36 -21 -18
-27 -36 -29 -90 0 -10 -4 -18 -9 -18 -9 0 -35 -81 -29 -90 2 -3 10 -4 19 -3 9
2 10 0 3 -3 -7 -3 -13 -12 -13 -20 0 -8 -4 -14 -10 -14 -5 0 -7 6 -4 14 3 8
-5 21 -17 30 -18 12 -20 16 -7 21 21 8 56 125 37 125 -5 0 -9 -4 -9 -9 0 -5
-9 -11 -20 -14 -15 -4 -20 0 -20 14 0 12 7 19 19 19 22 0 48 26 28 28 -50 7
-73 6 -83 -3 -13 -13 -14 -45 -1 -45 5 0 7 -7 4 -14 -4 -10 -1 -13 9 -9 18 7
18 -14 -1 -33 -21 -22 -20 -58 1 -50 14 5 15 4 5 -8 -7 -8 -11 -28 -9 -45 2
-17 0 -30 -4 -31 -35 -2 -48 2 -43 10 4 6 11 8 16 5 5 -4 9 9 9 27 l0 33 -20
-33 c-16 -26 -19 -43 -14 -70 8 -48 12 -134 6 -127 -10 10 -31 -17 -25 -32 4
-11 3 -14 -6 -9 -8 5 -14 1 -18 -13 -3 -12 -12 -21 -19 -21 -20 0 -22 -89 -3
-101 6 -3 3 -11 -6 -19 -23 -19 -20 -75 4 -77 11 -1 22 5 25 14 5 13 4 14 -9
3 -20 -17 -19 -7 4 31 10 17 17 38 14 48 -2 10 2 22 9 29 11 9 13 6 13 -14 -1
-13 -5 -27 -8 -31 -9 -9 -9 -34 1 -31 8 3 11 -11 7 -27 -9 -30 -11 -64 -4 -59
5 3 9 10 9 16 0 7 13 39 29 72 43 92 52 116 41 116 -6 0 -10 -6 -10 -12 0 -7
-12 -18 -26 -25 -22 -10 -24 -10 -14 3 10 11 10 14 -1 14 -10 0 -14 14 -15 43
-1 23 0 31 3 18 4 -19 7 -21 14 -10 7 11 9 11 9 1 0 -8 5 -10 13 -6 10 6 10 4
0 -7 -7 -7 -13 -20 -13 -28 0 -19 33 11 52 47 7 15 34 65 60 112 36 66 46 93
43 121 -2 20 1 42 6 50 6 10 9 8 9 -11 l0 -24 17 24 c11 15 17 41 16 70 -1 30
1 38 6 25 7 -17 8 -16 15 9 4 15 4 36 1 46 -4 13 0 20 15 25 11 3 20 11 20 17
0 6 -7 5 -17 -3 -15 -13 -15 -12 -3 7 11 18 16 20 27 9 15 -15 17 -41 5 -49
-5 -3 -9 -20 -10 -37 -1 -24 2 -29 11 -20 6 6 18 11 27 11 9 0 11 -3 4 -8 -6
-4 -13 -15 -17 -25 -6 -15 -1 -17 36 -14 30 2 47 -2 60 -15 19 -20 6 -24 -25
-7 -19 10 -20 9 -15 -10 4 -18 3 -20 -9 -10 -7 6 -11 16 -8 23 3 6 -1 3 -9 -7
-13 -15 -16 -15 -27 -2 -19 23 -31 18 -20 -11 15 -37 13 -47 -7 -36 -13 8 -21
5 -33 -12 -25 -32 -52 -118 -40 -130 6 -6 4 -13 -5 -20 -8 -6 -30 -67 -50
-136 -19 -69 -42 -142 -50 -163 -18 -46 -19 -71 -3 -61 7 4 2 -7 -11 -24 -12
-18 -19 -37 -15 -43 5 -8 3 -9 -6 -4 -9 5 -10 2 -5 -14 4 -13 2 -23 -7 -26 -7
-3 -14 -22 -16 -43 -1 -21 -16 -78 -33 -127 -16 -50 -35 -105 -41 -123 -14
-39 2 -66 25 -43 10 10 8 11 -8 5 -20 -7 -20 -7 -1 14 10 12 23 19 29 15 5 -3
7 -1 4 4 -4 6 2 18 12 27 10 9 26 35 36 57 11 22 36 59 57 82 22 25 40 56 44
77 10 56 27 90 47 90 11 0 17 -5 14 -12 -2 -7 -10 -12 -16 -10 -7 1 -10 -2 -6
-8 3 -5 1 -19 -5 -30 -7 -12 -7 -20 -1 -20 6 0 17 16 26 35 9 19 24 40 33 47
10 8 7 -1 -8 -26 l-24 -39 34 19 c32 18 170 152 170 165 0 3 -10 11 -22 18
-15 8 -16 10 -4 6 10 -3 25 0 32 6 12 10 13 8 8 -7 -5 -18 -4 -18 10 1 37 47
79 84 88 79 5 -3 4 -11 -4 -17 -25 -22 -73 -80 -60 -73 6 4 12 3 12 -3 0 -15
-18 -23 -22 -9 -5 13 -28 2 -28 -13 0 -6 6 -7 13 -3 7 5 6 1 -3 -10 -8 -10
-16 -14 -18 -8 -1 5 -33 -22 -69 -59 -36 -38 -70 -69 -75 -69 -5 0 -24 -11
-42 -25 -18 -14 -38 -25 -43 -25 -16 0 -23 -26 -22 -83 0 -37 3 -46 8 -32 5
11 7 32 5 48 -2 17 2 27 10 27 8 0 11 -10 8 -30 -5 -35 7 -39 26 -10 7 12 17
18 22 15 6 -3 10 -2 10 2 0 5 14 17 30 26 31 19 42 44 15 33 -8 -3 -15 -1 -15
4 0 17 19 21 39 8 16 -10 23 -10 33 0 6 6 16 12 21 12 12 0 -42 -43 -126 -100
-52 -35 -69 -53 -77 -79 -12 -43 -6 -50 20 -26 27 24 26 7 -2 -22 -15 -16 -22
-36 -23 -73 0 -27 2 -50 5 -50 3 0 4 -79 3 -175 -2 -180 0 -189 36 -166 12 8
12 12 2 25 -9 11 -10 16 -2 16 6 0 11 11 11 25 0 17 -6 25 -17 25 -17 1 -17 1
-1 10 12 8 17 26 17 78 2 107 8 146 21 150 9 3 11 -1 6 -14 -4 -11 -10 -58
-13 -106 -4 -78 -3 -87 14 -91 17 -5 17 -5 -2 -12 -17 -5 -20 -13 -17 -46 3
-24 9 -39 17 -39 24 0 45 12 45 25 0 8 5 17 12 21 7 4 8 3 4 -4 -4 -7 -3 -12
3 -12 17 0 135 62 159 83 23 21 62 31 62 15 0 -4 -5 -8 -11 -8 -6 0 -9 -7 -6
-14 6 -15 -29 -34 -40 -22 -3 2 -35 -10 -72 -29 -36 -18 -75 -36 -87 -39 -13
-4 -26 -23 -37 -54 -9 -26 -15 -38 -14 -27 1 11 -2 26 -7 34 -6 10 -5 12 2 7
7 -4 12 -2 12 4 0 7 -7 9 -16 6 -9 -3 -18 -6 -20 -6 -2 0 -4 -21 -4 -46 0 -27
-4 -43 -10 -39 -6 4 -10 -13 -10 -44 0 -28 -4 -51 -9 -51 -5 0 -9 32 -9 70 0
64 9 88 21 58 3 -7 5 -1 4 13 -1 24 -3 26 -24 16 -16 -7 -23 -19 -24 -41 0
-17 -2 -47 -3 -66 -1 -19 1 -43 6 -52 5 -10 3 -18 -5 -21 -9 -3 -9 -7 2 -20 9
-11 10 -17 2 -17 -6 0 -10 -12 -10 -27 1 -23 3 -24 6 -6 2 11 17 26 33 33 36
15 64 45 55 59 -3 6 1 11 9 11 9 0 16 -5 16 -11 0 -10 40 -3 50 10 3 3 17 7
31 9 20 2 28 -3 32 -19 5 -19 -8 -55 -24 -69 -12 -10 -29 -50 -22 -50 16 0 93
129 87 145 -4 9 0 15 10 15 8 0 21 10 27 23 7 12 15 24 18 27 25 21 51 75 52
107 1 30 2 33 8 15 l6 -24 24 26 c13 14 24 36 24 49 0 16 5 24 16 23 19 -1 65
84 52 97 -11 11 -63 -14 -57 -28 3 -8 -4 -10 -19 -8 -15 4 -28 -2 -39 -19
l-17 -23 1 25 c4 50 2 54 -20 35 -11 -10 -20 -13 -20 -8 0 6 7 13 15 17 14 5
22 36 9 36 -12 0 -64 -34 -64 -42 0 -4 -11 -8 -23 -8 -33 0 -58 -30 -50 -59 4
-16 2 -22 -5 -18 -5 4 -9 18 -8 32 2 13 -3 26 -11 29 -8 3 -11 1 -8 -4 9 -15
-28 -45 -58 -45 l-28 -1 23 18 c13 10 28 18 33 18 6 0 3 5 -5 10 -13 8 -12 10
3 10 11 0 20 10 24 30 3 17 9 30 13 30 4 0 11 12 14 26 8 31 37 77 44 70 3 -3
-1 -12 -8 -21 -16 -20 -5 -32 14 -16 8 7 20 10 26 6 5 -3 10 1 10 9 0 9 5 16
10 16 7 0 7 -7 0 -20 -6 -11 -15 -18 -20 -15 -16 10 -60 -27 -75 -63 -8 -19
-15 -36 -15 -37 0 -7 51 -1 56 7 5 8 54 31 62 29 1 -1 16 6 32 14 20 10 30 23
29 38 0 12 -3 16 -6 10 -2 -7 -12 -13 -21 -13 -13 0 -11 4 6 16 32 22 29 54
-5 54 l-28 1 27 16 c16 10 28 28 30 45 5 32 1 34 -30 12 -20 -14 -22 -14 -22
0 0 9 11 18 24 22 21 5 24 12 24 51 0 29 -5 46 -14 50 -20 7 -17 20 6 26 36 9
22 25 -15 17 -20 -5 -33 -4 -29 1 3 5 14 9 24 9 10 0 25 7 34 15 15 16 33 4
21 -15 -3 -6 1 -7 10 -4 9 4 14 13 11 20 -3 8 -1 14 4 14 6 0 10 11 10 25 0
27 -17 32 -40 13 -8 -7 -1 3 17 22 27 29 33 46 39 102 l7 67 -27 -12 c-14 -7
-26 -18 -26 -24 0 -15 -16 -17 -25 -3 -3 5 13 19 35 32 31 18 40 29 40 51 0
15 -4 27 -10 27 -5 0 -10 5 -10 11 0 5 5 7 11 3 13 -8 10 65 -4 84 -6 8 -5 12
2 12 8 0 10 8 6 20 -4 11 -2 20 4 20 13 0 12 5 14 -83 1 -60 3 -68 19 -64 10
3 21 1 24 -4 3 -5 -4 -9 -15 -9 -12 0 -21 -7 -21 -15 0 -19 10 -19 38 0 18 13
21 14 16 1 -3 -8 -16 -17 -30 -20 -26 -7 -25 -1 -29 -173 -1 -49 1 -60 11 -52
8 6 14 6 18 0 4 -5 -3 -12 -14 -16 -25 -8 -26 -25 -1 -18 25 6 81 62 81 80 0
10 8 13 31 9 16 -2 46 2 64 10 48 20 57 17 13 -5 -38 -19 -88 -35 -100 -33 -5
1 -8 -5 -8 -13 0 -8 -13 -21 -30 -30 -16 -9 -30 -20 -30 -26 0 -6 -4 -7 -10
-4 -19 12 -31 -5 -19 -27 6 -12 7 -18 1 -14 -6 4 -12 -15 -14 -47 -2 -28 -4
-53 -3 -54 1 -1 14 1 31 6 19 5 37 21 52 47 13 21 21 31 18 22 -3 -11 2 -19
16 -24 15 -4 31 4 62 33 22 22 50 48 62 59 11 10 29 39 38 64 10 25 21 51 24
59 4 11 -1 13 -21 9 -22 -4 -25 -3 -16 8 7 9 7 19 -1 36 -11 22 -10 22 4 4 9
-11 16 -23 16 -28 0 -4 5 -8 10 -8 6 0 10 7 10 15 0 8 5 15 11 15 13 0 38 29
39 44 0 5 -8 2 -17 -5 -17 -13 -17 -13 0 7 14 17 47 29 47 17 0 -2 -13 -22
-30 -44 -18 -25 -28 -50 -26 -63 3 -11 5 -25 5 -29 1 -5 14 1 30 12 45 32 49
25 5 -9 -46 -35 -58 -37 -49 -10 4 11 2 20 -4 20 -12 0 -14 -20 -5 -44 3 -9
11 -13 18 -9 6 4 16 8 23 9 6 1 29 15 50 30 l38 28 -29 -31 c-15 -17 -39 -34
-51 -37 -24 -6 -43 -55 -30 -76 3 -5 0 -10 -8 -10 -8 0 -17 -10 -20 -22 -8
-29 -2 -34 19 -17 15 12 17 12 12 -1 -2 -8 -14 -16 -26 -18 -12 -2 -22 -10
-22 -18 0 -20 14 -18 35 6 19 21 45 27 45 10 0 -5 -6 -10 -14 -10 -8 0 -17
-12 -20 -26 -4 -15 -14 -33 -21 -41 -16 -16 -20 -38 -6 -29 5 4 12 0 15 -6 5
-10 7 -10 12 0 3 6 14 12 25 12 13 0 17 -5 12 -17 -6 -17 -5 -17 14 0 18 16
21 16 26 3 4 -9 2 -15 -4 -13 -6 1 -15 -9 -20 -22 -8 -21 -7 -23 15 -17 16 4
28 0 37 -11 13 -14 12 -15 -6 -6 -38 20 -60 -1 -94 -86 -18 -44 -29 -86 -25
-92 4 -8 3 -9 -4 -5 -7 4 -13 2 -13 -3 -3 -26 -4 -30 -11 -36 -9 -10 2 -137
13 -150 6 -5 9 -4 9 4 0 23 36 60 50 51 10 -6 9 -9 -5 -11 -12 -3 -19 -15 -21
-36 -4 -34 11 -46 19 -15 3 12 5 11 6 -6 1 -14 5 -21 12 -16 8 4 9 0 4 -15 -5
-15 -2 -21 10 -21 9 0 13 -4 10 -10 -13 -20 14 -9 29 12 9 12 16 18 16 13 0
-6 -13 -25 -29 -43 l-28 -34 -6 31 c-8 41 -17 39 -45 -9 -23 -40 -20 -55 4
-23 12 16 13 16 14 2 0 -9 -7 -22 -15 -29 -8 -7 -15 -18 -15 -24 0 -6 7 -2 15
8 8 11 15 15 15 9 0 -6 -7 -16 -15 -23 -18 -15 -19 -27 -2 -44 11 -11 15 -6
23 30 6 24 7 44 2 44 -4 0 -5 7 -1 15 3 9 10 14 16 12 16 -5 17 -38 1 -54 -16
-16 -20 -58 -4 -48 6 4 7 -2 1 -17 -9 -24 2 -68 21 -79 6 -4 9 -12 6 -20 -2
-7 -19 14 -38 47 -20 36 -35 53 -38 44 -3 -7 -1 -15 4 -17 5 -2 7 -26 5 -54
-2 -32 2 -55 9 -62 10 -9 11 -9 6 0 -3 6 -2 14 3 17 10 7 9 -20 -2 -30 -4 -4
-7 -21 -6 -38 0 -17 3 -24 5 -16 21 62 39 90 58 90 l21 0 -21 -18 c-24 -19
-68 -137 -59 -159 7 -21 -5 -39 -16 -22 -4 8 -6 -13 -4 -46 l5 -60 -15 50
c-12 43 -12 53 1 81 16 32 15 67 -2 214 -3 25 -7 60 -9 78 -4 42 -10 48 -31
31 -10 -8 -20 -14 -23 -13 -12 1 -61 -87 -60 -109 1 -21 1 -20 8 3 l8 25 6
-30 c3 -16 9 -49 12 -73 8 -49 31 -54 53 -12 15 28 12 96 -4 93 -7 -1 -10 10
-8 27 3 21 -1 30 -11 30 -8 0 -15 5 -15 11 0 5 5 7 10 4 6 -3 10 1 10 9 0 9 5
16 11 16 5 0 7 -5 4 -10 -4 -6 -2 -16 3 -23 19 -23 34 -165 19 -174 -6 -3 -7
-1 -3 5 4 7 2 12 -3 12 -6 0 -11 -5 -11 -12 0 -6 -7 -19 -15 -28 -13 -15 -13
-22 0 -68 9 -28 20 -54 25 -57 6 -3 10 -16 10 -28 0 -12 7 -35 15 -51 8 -15
15 -35 15 -42 0 -8 7 -17 15 -20 8 -4 15 -16 15 -27 0 -20 0 -20 15 -1 13 17
14 17 15 2 0 -15 9 -18 49 -18 39 0 51 4 54 18 4 16 5 16 6 0 1 -14 10 -18 37
-18 33 0 35 2 34 28 -3 43 2 50 9 12 6 -33 9 -35 48 -38 37 -3 41 -1 36 17 -3
12 -8 21 -12 21 -3 0 -6 29 -5 64 l1 65 -30 -32 c-28 -31 -28 -19 0 14 12 14
12 19 -2 33 -25 24 -44 19 -52 -14 l-8 -29 -12 24 c-6 14 -7 25 -2 25 5 0 9
20 9 45 0 36 -3 45 -17 45 -16 1 -16 2 -2 13 11 9 13 21 8 47 -6 26 -4 38 7
46 22 17 17 26 -8 13 -25 -13 -42 -34 -74 -88 -11 -20 -28 -36 -37 -36 -24 0
-33 -15 -17 -26 11 -8 10 -9 -7 -4 -19 5 -23 2 -23 -15 0 -12 -4 -19 -9 -15
-12 7 -10 45 2 45 4 0 18 12 31 27 20 23 22 32 14 56 -6 15 -8 30 -5 33 3 3 8
-9 12 -26 6 -25 9 -29 21 -19 7 6 12 15 9 19 -2 4 9 17 25 29 17 12 30 27 30
33 0 7 -7 3 -16 -8 -8 -10 -12 -13 -8 -5 4 8 7 28 7 45 -1 26 0 28 7 11 5 -11
9 -15 9 -10 1 6 6 3 11 -5 7 -11 10 -8 10 15 -1 17 -7 39 -15 49 -17 23 -20
40 -5 31 6 -4 10 12 10 39 0 25 -5 46 -10 46 -7 0 -7 6 0 20 12 22 -4 65 -20
55 -6 -4 -6 3 -1 18 6 14 7 28 4 31 -4 3 0 6 7 6 7 0 22 8 33 17 19 17 20 17
9 -3 -6 -11 -7 -26 -2 -33 6 -11 12 -7 23 15 12 24 13 33 3 46 -10 13 -15 15
-24 6 -20 -20 -13 1 7 23 22 23 33 67 19 75 -5 3 -7 13 -6 22 3 18 -22 21 -54
7 -15 -6 -18 -2 -18 19 0 24 10 31 35 26 5 -1 6 2 2 6 -4 4 -15 9 -25 10 -9 2
-18 8 -21 15 -2 6 -12 20 -22 30 -11 11 -15 19 -10 19 11 0 37 -24 45 -42 5
-10 7 -10 12 -1 3 7 11 10 17 7 7 -2 13 4 14 16 1 11 -1 19 -5 18 -4 -1 -17 3
-28 10 -12 6 -24 9 -27 5 -3 -3 -13 1 -21 9 -13 14 -13 18 0 37 8 11 23 21 32
20 10 0 12 -3 5 -6 -26 -10 -13 -33 17 -33 23 0 30 5 30 19 0 11 -4 22 -10 26
-5 3 -6 13 -3 23 6 16 5 16 -14 0 -36 -33 -32 -19 8 24 29 32 39 50 39 76 0
18 -4 31 -8 28 -5 -3 -8 4 -8 16 1 15 -6 22 -26 25 -14 2 -29 -1 -33 -7 -3 -5
-11 -10 -16 -10 -6 0 -4 7 5 15 9 9 33 15 63 15 31 0 43 -3 34 -9 -8 -5 -10
-14 -6 -21 4 -7 7 -27 7 -44 -1 -17 3 -41 10 -53 8 -17 7 -31 -6 -63 -16 -41
-22 -85 -8 -63 5 8 12 8 26 -3 19 -14 19 -14 -2 -14 -26 0 -29 -31 -8 -99 12
-42 13 -43 18 -18 3 15 2 27 -2 27 -4 0 -7 18 -6 40 0 25 5 40 13 40 7 0 13
10 13 23 0 19 5 23 28 23 15 -1 30 -5 33 -10 10 -13 29 3 29 25 0 10 4 19 9
19 5 0 4 -18 -1 -41 -7 -26 -14 -36 -19 -28 -6 10 -11 10 -23 0 -13 -11 -16
-11 -16 -1 0 8 -3 10 -7 7 -9 -10 -10 -57 -1 -57 4 0 -1 -9 -12 -20 -22 -22
-27 -59 -7 -62 35 -4 43 -2 54 12 9 12 10 9 6 -14 -4 -20 -10 -26 -24 -23 -16
4 -16 2 3 -34 11 -21 18 -44 15 -51 -3 -8 -10 -2 -17 15 -16 33 -25 35 -28 4
-1 -15 8 -29 26 -41 16 -10 36 -32 45 -48 9 -16 21 -26 27 -23 6 3 10 -4 10
-16 0 -17 -3 -19 -13 -10 -8 6 -18 7 -22 3 -5 -4 -6 -2 -2 3 3 6 -10 28 -29
50 -24 28 -34 35 -34 22 0 -9 -5 -16 -11 -14 -6 1 -14 -4 -16 -10 -3 -7 2 -13
11 -13 9 0 16 -4 16 -9 0 -4 15 -24 34 -44 l34 -36 70 77 c73 81 135 156 112
135 -25 -23 -34 -14 -12 10 22 23 32 84 12 72 -5 -3 -10 -1 -10 4 0 6 4 11 10
11 5 0 9 61 9 153 0 98 -3 147 -9 137 -8 -13 -11 -13 -25 2 -8 10 -10 14 -4 9
8 -6 17 -5 25 4 10 9 13 45 13 127 l0 113 -30 -33 c-16 -18 -27 -38 -23 -44 4
-6 3 -8 -3 -5 -10 6 -21 -5 -60 -61 -14 -18 -19 -33 -13 -37 14 -9 32 5 26 20
-8 21 6 26 20 7 10 -14 15 -15 25 -4 9 8 9 12 2 12 -16 0 -5 34 15 47 14 8 17
6 19 -16 0 -14 -6 -31 -15 -38 -15 -11 -15 -14 -2 -24 13 -9 12 -10 -4 -5 -15
5 -17 2 -12 -18 5 -20 3 -23 -14 -19 -11 3 -28 2 -37 -3 -10 -4 -22 -8 -28 -8
-5 -1 -10 -5 -10 -11 -1 -5 -7 -21 -14 -34 -12 -21 -11 -23 2 -18 14 5 14 2
-1 -28 -9 -18 -19 -29 -20 -24 -2 5 1 16 7 23 9 11 7 15 -9 19 -20 5 -29 27
-10 27 5 0 7 13 4 29 -4 16 -1 32 5 35 6 4 9 12 6 17 -4 5 -1 9 5 9 7 0 9 -7
6 -15 -21 -52 -21 -51 1 -32 11 10 24 17 29 15 16 -4 55 23 48 33 -4 6 -14 3
-26 -7 -16 -16 -21 -16 -28 -4 -15 24 -12 32 35 92 25 32 47 71 48 88 2 17 7
33 12 38 5 4 5 2 1 -5 -3 -6 -2 -14 3 -17 5 -3 12 5 15 19 4 14 11 25 16 25
14 0 11 233 -4 242 -8 6 -8 8 2 8 8 0 12 17 12 50 0 46 -2 50 -24 50 -14 0
-27 4 -30 8 -3 5 8 6 25 4 l29 -4 0 56 c0 38 -4 56 -12 56 -10 0 -10 2 -1 8 8
5 12 58 12 173 1 154 -1 167 -19 184 -11 10 -20 28 -20 41 0 24 -13 38 -24 27
-3 -3 -1 -12 4 -18 13 -16 2 -45 -16 -45 -8 0 -14 -7 -14 -15 0 -13 4 -14 20
-5 23 12 25 3 5 -23 -9 -13 -20 -17 -34 -12 -17 5 -21 2 -19 -17 2 -12 -2 -23
-9 -23 -7 0 -14 -4 -15 -10 -3 -13 -31 -45 -35 -41 -2 2 6 20 18 41 17 28 24
33 31 23 8 -10 9 -10 5 2 -6 24 -38 25 -44 1 -6 -24 -23 -28 -23 -6 0 11 -13
8 -55 -15 -91 -49 -95 -53 -83 -67 7 -9 7 -13 -1 -13 -8 0 -10 -8 -6 -20 4
-12 2 -20 -5 -20 -8 0 -10 10 -8 25 4 17 1 25 -8 25 -8 0 -14 -7 -14 -15 0 -8
-6 -15 -14 -15 -7 0 -44 -34 -82 -75 -98 -105 -98 -105 -86 -117 13 -13 -15
-48 -33 -42 -6 3 -22 0 -36 -5 -25 -10 12 -14 152 -15 32 -1 56 -5 56 -11 0
-6 -8 -12 -18 -12 -10 -1 -33 -8 -51 -17 -33 -15 -115 -29 -103 -18 3 3 17 8
32 10 14 1 40 9 57 16 29 13 25 14 -60 13 -50 0 -96 3 -102 7 -14 8 -32 0 -32
-15 0 -5 7 -9 15 -9 8 0 15 -4 15 -10 0 -16 27 -12 45 6 9 9 19 13 22 10 4 -4
-8 -21 -25 -39 -20 -19 -30 -25 -26 -14 6 17 5 17 -27 -1 -26 -15 -33 -25 -31
-43 1 -19 0 -21 -8 -9 -15 24 -36 -13 -39 -68 -1 -26 -9 -54 -17 -63 -8 -8
-14 -21 -14 -27 0 -6 -9 -16 -20 -22 -12 -7 -17 -16 -13 -27 4 -10 2 -14 -4
-10 -6 4 -23 -7 -37 -24 -32 -38 -34 -27 -3 15 13 17 29 46 36 64 14 34 35 55
25 25 -5 -15 -4 -16 5 -3 15 21 14 30 -4 30 -12 0 -13 4 -5 19 9 17 6 20 -18
24 l-27 4 27 2 c20 1 29 9 37 32 16 47 14 69 -7 69 -10 0 -18 8 -19 19 -1 14
3 18 13 14 8 -3 14 0 14 6 0 6 7 8 16 4 10 -3 14 -14 11 -27 -3 -11 -1 -30 4
-41 8 -18 8 -17 6 5 -1 18 3 25 15 25 29 0 31 13 4 38 -32 29 -33 41 -5 32 15
-5 19 -4 15 4 -4 6 -13 11 -21 11 -7 0 -16 6 -18 13 -4 10 -6 10 -6 0 -1 -8
-14 -13 -32 -13 -18 0 -28 4 -24 10 4 6 16 8 27 4 17 -5 20 -3 15 11 -4 9 -7
23 -7 31 0 9 -4 13 -8 10 -5 -3 -7 9 -4 27 l4 32 -31 -34 c-36 -39 -37 -42
-13 -35 16 5 16 5 0 -9 -19 -15 -25 -32 -8 -22 6 3 7 -1 4 -10 -5 -12 -10 -13
-17 -6 -17 17 -22 14 -37 -24 -13 -32 -30 -47 -30 -26 0 5 -9 7 -20 4 -17 -4
-19 -2 -13 13 7 18 6 18 -21 1 -15 -10 -30 -16 -33 -14 -8 9 36 47 49 42 19
-7 39 9 41 33 1 12 6 22 12 22 5 0 5 4 -2 8 -8 5 -11 31 -10 74 2 69 -5 74
-40 27 -13 -18 -68 -15 -57 3 3 5 17 7 30 4 27 -7 32 8 8 22 -15 8 -15 10 0
15 10 4 13 12 9 23 -4 12 -3 15 6 10 7 -5 10 -17 7 -29 -4 -15 -2 -17 7 -8 14
14 16 53 3 62 -24 18 37 53 66 38 14 -7 16 -6 12 6 -5 11 -2 14 11 8 16 -6 15
-9 -10 -29 -26 -20 -29 -30 -31 -84 -2 -33 1 -58 6 -55 5 3 11 1 15 -4 4 -8
24 -9 68 -2 10 1 9 51 -2 51 -5 0 -12 -10 -16 -22 -4 -15 -8 -18 -12 -10 -4
10 -8 10 -19 1 -8 -7 -18 -9 -22 -5 -4 4 1 12 10 17 9 5 24 16 32 24 8 8 18
15 23 15 4 0 15 15 22 33 8 17 21 38 28 45 7 8 10 18 6 24 -8 15 -52 -40 -54
-67 -1 -18 -2 -18 -6 -1 -3 10 0 23 6 29 16 16 14 32 -2 18 -10 -8 -14 -7 -14
3 0 8 11 17 25 21 17 4 23 11 19 24 -2 11 3 23 15 30 11 7 18 17 15 24 -2 7 3
17 11 23 9 6 13 18 9 27 -5 14 -11 15 -31 5 -14 -6 -23 -15 -20 -20 3 -5 -6
-20 -20 -33 -14 -13 -26 -19 -26 -13 0 6 8 17 17 23 17 12 17 14 1 32 -16 17
-15 18 10 20 16 1 35 13 49 30 12 15 29 36 38 46 8 9 15 22 15 28 0 5 5 7 10
4 6 -3 10 0 10 7 0 9 3 9 10 -2 8 -13 11 -12 24 5 8 11 12 23 10 27 -2 4 1 10
7 14 8 4 9 3 5 -4 -14 -22 11 -12 35 15 21 23 22 25 4 19 -19 -7 -18 -6 2 13
29 27 32 26 30 -6 -1 -19 -11 -33 -29 -43 -14 -8 -46 -33 -70 -56 -24 -22 -51
-43 -61 -47 -19 -7 -33 -34 -24 -44 4 -3 21 1 39 10 18 9 35 14 38 12 4 -2 6
6 6 18 -1 15 5 22 19 23 11 1 32 2 46 3 15 0 30 8 33 17 3 8 2 12 -4 9 -21
-13 -9 23 13 40 21 16 21 16 -5 1 -39 -23 -35 -9 10 31 32 30 34 34 14 29 -22
-4 -23 -3 -8 13 9 10 16 22 16 27 0 5 -4 2 -10 -6 -5 -8 -13 -11 -17 -6 -4 4
0 13 10 21 10 7 15 19 11 29 -4 11 -2 15 8 11 21 -8 36 16 27 45 -4 14 -7 19
-8 13 -1 -7 -7 -13 -15 -13 -7 0 -20 -10 -28 -21 -14 -21 -14 -21 -14 -1 0 11
3 19 7 16 4 -2 18 7 32 20 16 15 28 20 30 13 2 -7 7 -9 11 -6 9 9 -11 59 -24
59 -5 0 -10 -7 -10 -15 0 -8 -6 -12 -14 -9 -24 9 -54 -14 -66 -52 -7 -19 -9
-38 -6 -41 3 -4 1 -12 -5 -20 -7 -7 -7 -13 -2 -13 6 0 8 -11 5 -25 -2 -14 -8
-25 -12 -25 -5 0 -6 10 -3 23 4 21 3 21 -11 -3 -8 -14 -15 -31 -16 -38 0 -7
-6 -20 -12 -28 -45 -53 -53 -55 -62 -19 -4 14 -11 25 -17 25 -6 0 -7 4 -4 10
4 6 -1 7 -11 3 -11 -4 -13 -8 -6 -11 7 -2 12 -9 12 -14 0 -6 -3 -9 -6 -5 -10
9 -44 -32 -44 -53 0 -11 -5 -20 -11 -20 -6 0 -8 7 -5 17 4 9 1 20 -6 24 -8 5
-4 11 15 18 15 6 27 13 27 15 0 3 -7 3 -17 -1 -13 -5 -15 -2 -10 18 4 13 7 27
7 32 0 4 7 7 16 7 8 0 12 -5 8 -11 -4 -8 -1 -8 12 -1 11 5 25 7 32 5 7 -3 12
3 12 14 0 14 -2 15 -9 4 -7 -11 -9 -11 -14 0 -4 10 -6 10 -6 2 -1 -7 -5 -13
-11 -13 -5 0 -7 6 -4 13 3 8 -3 13 -15 13 -11 0 -17 -4 -15 -8 3 -4 1 -8 -4
-8 -12 0 -34 -49 -27 -61 4 -5 2 -9 -3 -9 -16 0 -23 -30 -11 -52 13 -23 2 -39
-12 -18 -8 13 -13 11 -29 -9 -11 -13 -18 -26 -15 -30 3 -3 10 1 14 8 6 9 11
10 15 2 4 -6 5 -11 1 -11 -3 0 -1 -9 5 -20 7 -14 7 -20 0 -20 -5 0 -10 5 -10
10 0 6 -7 10 -15 10 -9 0 -12 -6 -9 -15 12 -31 -13 -14 -29 20 -17 36 -17 36
10 60 l28 25 -24 20 c-19 16 -26 18 -32 8 -6 -9 -9 -7 -9 8 0 24 -34 39 -48
20 -5 -6 -12 -28 -16 -49 -4 -21 -11 -35 -17 -32 -13 9 -11 35 3 35 6 0 9 3 5
6 -3 3 -2 17 3 30 7 16 6 24 -1 24 -6 0 -9 7 -5 15 7 20 -3 19 -26 -2 -10 -9
-18 -11 -18 -5 0 6 5 14 10 17 6 4 7 11 4 17 -4 6 3 8 17 7 29 -4 74 25 64 40
-3 6 -12 11 -20 11 -17 0 -28 17 -20 31 5 6 11 4 19 -6 10 -15 12 -14 12 4 0
12 -4 21 -9 21 -5 0 -7 9 -4 20 3 14 0 20 -10 20 -11 0 -14 -6 -10 -21 4 -15
2 -19 -10 -15 -8 3 -16 6 -18 6 -2 0 3 12 11 28 9 17 14 57 14 110 0 52 4 82
11 82 7 0 8 -11 4 -31 -5 -22 -4 -29 4 -25 6 4 11 2 11 -3 0 -6 -5 -11 -11
-11 -6 0 -9 -21 -7 -52 3 -58 26 -74 40 -28 7 22 7 22 4 -5 -3 -16 -8 -39 -12
-50 -7 -20 -7 -20 14 -1 34 30 38 71 8 99 -17 16 -22 27 -15 38 5 7 9 25 9 38
0 17 4 22 15 17 9 -3 18 1 21 9 3 7 12 11 20 8 12 -4 11 -8 -6 -20 -15 -11
-20 -25 -20 -59 0 -24 5 -44 11 -44 5 0 7 -4 4 -10 -3 -5 -1 -10 6 -10 6 0 9
8 6 20 -3 11 -2 20 1 20 4 0 7 16 8 35 1 41 5 48 28 39 12 -5 14 -10 6 -19 -6
-7 -8 -21 -4 -31 4 -14 3 -15 -4 -6 -7 11 -11 7 -14 -13 -4 -21 -2 -25 11 -21
11 4 10 2 -3 -9 -14 -10 -15 -15 -6 -15 11 0 11 -3 2 -12 -7 -7 -12 -19 -12
-27 0 -14 1 -14 10 -1 5 8 10 11 10 6 0 -5 7 -3 16 5 13 10 17 10 25 -2 10
-17 11 -15 14 31 1 19 -2 38 -7 41 -11 7 1 59 13 59 5 0 6 7 3 15 -4 8 -10 12
-15 9 -5 -3 -9 0 -9 5 0 6 5 11 11 11 24 0 36 29 38 89 1 35 3 67 6 71 3 5 1
11 -5 15 -6 4 -7 12 -3 18 4 7 8 17 8 22 0 6 10 11 23 13 12 2 22 10 22 18 0
18 -2 18 -46 -7 -30 -16 -39 -18 -45 -7 -18 28 -11 38 17 26 22 -10 28 -10 39
5 7 9 17 17 22 17 19 0 21 38 5 95 -11 38 -20 54 -29 51 -7 -3 -13 1 -13 9 0
30 -20 24 -46 -14 -15 -24 -23 -45 -18 -53 4 -7 4 -10 -1 -6 -4 4 -22 -4 -40
-17 -36 -28 -45 -30 -45 -13 0 6 3 8 6 5 9 -9 64 32 64 47 0 8 7 19 16 27 8 7
13 21 10 32 -2 10 -2 16 1 13 14 -13 33 19 33 55 0 37 -13 53 -23 27 -7 -21
-41 5 -52 40 -6 17 -14 34 -18 39 -5 4 -5 -1 -1 -12 8 -19 7 -19 -10 -2 -21
21 -16 20 -60 2 -21 -9 -36 -11 -36 -5 0 5 5 10 11 10 5 0 8 4 5 9 -3 4 15 7
39 6 29 -1 46 3 49 12 3 7 -1 13 -9 13 -9 0 -12 6 -8 15 3 9 8 13 11 11 3 -3
11 2 19 12 13 16 14 15 8 -5 -8 -28 1 -44 21 -36 9 3 11 9 5 17 -5 6 -5 28 -1
51 l8 40 1 -37 c1 -50 10 -68 28 -61 11 5 14 -1 12 -23 -4 -38 7 -54 37 -54
13 0 24 -5 24 -11 0 -7 -9 -9 -21 -6 -15 4 -19 1 -17 -11 6 -29 33 -24 45 8
12 31 11 117 -2 162 -6 22 -5 22 6 3 7 -11 13 -54 13 -97 1 -79 4 -86 22 -68
19 19 45 1 38 -26 -4 -15 -2 -24 5 -24 6 0 14 14 18 30 3 17 9 30 14 30 5 0
13 10 20 21 10 20 9 21 -9 17 -15 -4 -19 -2 -15 9 4 9 -5 18 -26 26 -17 6 -31
17 -31 24 0 18 19 16 26 -2 9 -23 34 -18 34 6 0 15 -5 19 -15 15 -13 -4 -14
-2 -5 15 16 28 30 14 30 -31 0 -32 4 -39 25 -44 l24 -6 -30 -45 c-24 -36 -29
-52 -24 -75 4 -20 3 -30 -5 -30 -6 0 -8 -4 -5 -10 3 -5 1 -10 -4 -10 -14 0
-14 6 -1 31 14 26 -4 24 -22 -2 -13 -20 -14 -20 -15 -3 -3 52 -8 74 -19 74
-21 0 -46 -32 -41 -52 4 -14 1 -18 -9 -14 -19 7 -18 -8 3 -25 13 -11 17 -11
20 -1 3 6 10 12 16 12 7 -1 2 -9 -10 -19 -13 -11 -23 -24 -23 -29 0 -14 30 -9
39 7 5 7 8 -1 9 -21 0 -18 -4 -39 -11 -46 -9 -11 -7 -17 6 -27 9 -7 17 -17 17
-23 0 -5 20 -12 45 -14 31 -2 45 1 45 9 0 7 3 13 8 13 4 0 6 18 4 40 -2 22 0
46 5 53 16 20 24 49 12 41 -8 -4 -9 1 -4 15 11 34 -8 24 -35 -20 -28 -45 -34
-79 -15 -79 10 0 11 -5 2 -25 -8 -16 -20 -25 -34 -25 -26 0 -31 25 -7 34 11 4
14 13 10 29 -4 16 2 32 20 52 13 16 27 39 30 51 4 15 11 21 20 17 9 -3 24 4
35 16 25 27 28 26 22 -1 -3 -17 -2 -19 5 -9 8 11 10 11 15 0 4 -9 8 -10 14 -4
4 6 26 9 48 8 22 -1 52 -2 68 -2 17 -1 27 -6 27 -16 0 -13 3 -13 20 -3 13 9
16 15 7 20 -14 9 -3 21 23 25 20 3 28 -21 11 -31 -15 -10 -20 -56 -5 -56 7 0
15 6 17 13 3 7 6 5 6 -5 1 -10 -6 -19 -14 -19 -8 -1 -21 -2 -27 -3 -7 -1 -12
5 -10 12 1 6 -2 12 -8 12 -20 0 -9 -31 15 -42 14 -6 25 -15 25 -20 0 -5 -4 -6
-10 -3 -5 3 -10 1 -10 -5 0 -6 -5 -8 -10 -5 -6 4 -8 10 -5 15 3 4 -2 10 -10
13 -11 5 -12 1 -5 -18 7 -18 6 -23 -4 -19 -13 5 -46 -20 -46 -35 0 -13 93 37
113 60 9 12 17 18 17 14 0 -4 7 -2 15 5 8 7 13 15 11 19 -2 3 12 7 32 7 l37 2
-33 -28 c-32 -26 -32 -28 -11 -33 26 -7 79 2 79 13 0 4 -7 10 -15 14 -8 3 -15
10 -15 16 0 6 7 4 16 -4 20 -21 21 -20 60 9 36 27 44 30 44 15 0 -5 -6 -10
-12 -10 -7 0 -24 -12 -38 -27 l-25 -26 34 6 c18 4 37 7 42 7 4 0 7 63 6 140
-1 104 -5 140 -14 140 -17 0 -17 17 -1 22 8 3 14 33 16 89 2 60 0 80 -7 69 -9
-13 -11 -13 -11 2 0 9 4 19 8 22 5 3 10 28 11 56 1 42 -1 50 -17 50 -10 0 -23
-5 -30 -12 -9 -9 -12 -9 -12 0 0 7 -7 12 -16 12 -14 0 -15 2 -3 17 13 15 12
16 -9 11 -12 -4 -20 -3 -17 2 3 4 -1 12 -8 18 -15 13 -77 13 -77 0 0 -13 -24
-5 -31 11 -4 11 -8 10 -22 -3 -23 -24 -21 -33 11 -51 15 -9 19 -14 9 -11 -10
3 -23 6 -27 6 -5 0 -15 18 -21 40 -10 34 -15 39 -33 34 -39 -12 -81 -37 -69
-41 7 -2 21 1 32 6 13 7 22 8 26 1 3 -5 -1 -10 -9 -10 -10 0 -13 -6 -10 -15 4
-8 9 -13 13 -10 4 2 19 -2 33 -9 14 -7 38 -16 54 -18 16 -3 36 -8 45 -12 12
-5 18 -1 22 15 4 13 9 20 13 16 9 -9 -16 -58 -26 -52 -18 11 -77 12 -78 2 -1
-23 -30 -92 -36 -89 -4 2 -12 1 -19 -1 -6 -3 1 -6 16 -6 25 -1 27 -3 13 -16
-8 -9 -21 -14 -28 -13 -16 4 -19 -63 -4 -75 7 -6 6 -7 -4 -4 -8 2 -17 14 -19
28 -3 22 -4 23 -12 4 -7 -19 -8 -19 -8 3 -1 12 3 22 8 22 14 0 24 77 12 97 -9
15 -10 13 -11 -13 0 -17 -8 -38 -19 -48 -21 -19 -35 -8 -25 18 3 9 2 16 -4 16
-6 0 -19 3 -29 7 -15 5 -16 4 -7 -8 6 -8 14 -32 17 -54 3 -22 3 -32 1 -22 -7
21 -24 23 -24 1 0 -8 -5 -12 -10 -9 -7 4 -6 13 1 26 5 11 8 28 6 37 -4 16 -5
16 -6 0 -2 -29 -19 -20 -25 12 -3 17 -9 44 -12 60 -6 30 -34 43 -34 16 0 -7
-7 -19 -16 -27 -13 -11 -14 -9 -9 13 4 17 2 27 -8 31 -10 4 -14 23 -13 76 1
69 -8 89 -38 82 -5 -1 -13 4 -17 11 -7 10 -9 8 -9 -5 0 -10 -4 -15 -10 -12 -5
3 -10 -2 -10 -12 0 -14 -2 -15 -9 -4 -6 9 -2 20 10 32 11 11 19 27 19 37 0 11
-7 7 -21 -15 -12 -18 -25 -33 -30 -33 -15 0 -10 15 11 33 12 10 18 23 14 29
-4 6 -3 8 4 4 5 -3 13 0 15 6 4 10 6 10 6 0 1 -7 5 -11 10 -8 5 4 7 -2 4 -13
-3 -11 2 -21 12 -25 18 -6 18 -7 -1 52 -4 13 4 22 30 34 l35 17 -20 55 c-10
31 -19 63 -18 73 0 14 2 15 6 3 3 -8 12 -31 20 -50 14 -32 16 -33 24 -15 7 15
7 11 3 -12 -5 -27 -2 -33 13 -33 15 0 15 -2 4 -9 -12 -8 -13 -18 -3 -61 7 -28
12 -62 12 -76 0 -13 4 -24 9 -24 5 0 12 -8 14 -17 3 -10 4 -4 4 12 -1 17 -5
33 -10 36 -13 9 2 31 15 23 6 -4 14 0 19 7 6 10 9 6 9 -13 0 -20 4 -26 15 -22
8 4 22 1 29 -5 8 -7 17 -8 20 -3 6 10 50 9 83 -2 16 -5 23 -2 27 11 3 11 4 8
3 -7 -2 -22 2 -25 31 -25 21 -1 31 3 28 11 -4 9 10 11 51 7 41 -5 54 -3 49 5
-4 7 -1 12 8 12 8 0 17 9 21 19 3 11 12 22 20 25 8 3 15 13 15 21 0 12 6 15
20 10 17 -5 20 -2 20 27 0 24 -3 29 -9 19 -8 -12 -12 -12 -24 -2 -8 6 -17 8
-19 4 -3 -4 -3 -2 -1 6 2 8 -2 19 -9 24 -13 8 -4 8 41 -4 11 -3 15 13 17 76 2
45 -1 71 -5 60 -7 -17 -8 -17 -13 8 -4 19 -1 27 8 27 8 0 14 10 14 23 -1 22
-1 22 -16 2 -15 -19 -15 -19 -9 10 4 17 9 36 11 43 2 8 -3 12 -14 10 -9 -2
-18 -9 -18 -16 -1 -6 -2 -22 -3 -34 -2 -34 -28 -65 -43 -50 -8 8 -17 7 -37 -7
-39 -27 -59 -35 -32 -13 13 10 21 24 17 30 -3 6 1 17 9 26 8 8 11 17 6 20 -5
4 -11 0 -14 -6 -3 -10 -7 -10 -17 -1 -14 13 -5 48 10 38 5 -3 10 -1 10 4 0 19
-29 12 -40 -9 -6 -11 -19 -20 -30 -20 -10 0 -22 -4 -25 -10 -3 -5 -2 -10 4
-10 6 0 8 -7 5 -15 -4 -8 -10 -12 -15 -9 -13 8 -11 44 2 44 6 0 9 7 5 15 -3 8
-1 15 4 15 6 0 10 7 10 15 0 8 -4 15 -10 15 -5 0 -10 -6 -10 -12 0 -10 -2 -10
-8 0 -5 7 -16 10 -28 6 -16 -6 -17 -5 -6 7 15 16 16 79 1 79 -7 0 -8 -11 -4
-29 5 -24 2 -32 -14 -41 -19 -10 -20 -9 -11 15 15 38 12 43 -10 17 -11 -13
-24 -21 -30 -17 -18 11 -32 -5 -19 -21 10 -12 14 -12 20 -2 4 7 11 9 15 5 4
-4 -1 -14 -12 -21 -10 -8 -21 -10 -22 -5 -2 5 -8 7 -13 3 -5 -3 -9 2 -9 11 0
9 -7 23 -15 32 -14 14 -15 12 -10 -18 3 -18 9 -37 12 -42 4 -6 -1 -8 -11 -4
-14 5 -17 3 -12 -8 3 -9 0 -15 -9 -15 -18 0 -19 14 -4 42 9 17 8 24 -5 34 -16
11 -16 13 1 23 16 9 16 10 1 11 -9 0 -18 5 -20 11 -2 6 -16 1 -33 -13 -16 -12
-26 -17 -21 -10 12 20 -11 14 -37 -11 -14 -12 -27 -34 -29 -47 l-4 -25 -14 28
c-11 23 -12 32 -1 49 7 11 8 17 2 13 -7 -4 -11 4 -11 20 0 20 4 26 15 22 8 -4
17 -2 20 2 3 5 -9 8 -25 7 -17 -1 -30 3 -30 8 0 6 -4 5 -9 -2 -12 -19 -33 10
-25 34 5 18 5 18 -6 1 -6 -10 -9 -25 -6 -32 3 -8 1 -17 -4 -20 -5 -3 -7 -12
-3 -20 3 -8 1 -15 -4 -15 -5 0 -7 -16 -5 -35 2 -20 0 -35 -6 -35 -6 0 -12 -8
-15 -17 -2 -10 -3 10 -2 44 1 36 8 70 16 80 12 15 12 16 -2 11 -9 -4 -21 -2
-27 4 -8 8 -16 5 -28 -7 -17 -17 -17 -17 4 -11 13 5 22 3 22 -3 0 -6 -4 -11
-10 -11 -5 0 -10 -6 -10 -14 0 -8 -5 -18 -11 -22 -8 -4 -9 1 -4 16 5 16 4 20
-4 15 -7 -4 -19 -1 -27 6 -12 10 -13 9 -8 -5 5 -12 2 -15 -10 -10 -22 8 -68
-4 -61 -16 3 -6 2 -10 -3 -10 -6 0 -12 7 -16 15 -7 20 -22 19 -22 -2 -1 -10
-4 -26 -9 -35 -6 -16 -4 -17 24 -7 17 6 36 9 43 6 7 -3 4 -6 -7 -6 -11 -1 -30
-8 -42 -16 -20 -14 -22 -13 -31 13 -9 22 -13 21 -12 -3 1 -8 -27 -35 -35 -35
-4 0 -5 6 -2 14 3 8 1 17 -6 20 -8 3 -7 5 3 5 17 1 58 47 71 78 9 24 3 53 -11
53 -16 0 -22 -21 -10 -35 19 -22 -17 -31 -48 -11 -9 5 -18 1 -27 -10 -12 -17
-11 -20 7 -24 20 -5 20 -5 -1 -24 -12 -11 -21 -30 -21 -43 0 -13 -4 -22 -8
-19 -14 8 -5 92 13 127 12 23 14 34 6 39 -7 3 -9 14 -5 23 13 35 -6 15 -25
-25 -14 -31 -16 -45 -8 -50 7 -4 8 -8 2 -8 -20 0 -37 18 -30 30 6 9 4 11 -4 6
-7 -5 -11 -22 -9 -39 2 -18 -2 -32 -9 -34 -7 -3 -13 0 -13 7 0 8 -6 8 -21 -1
-17 -8 -23 -8 -30 2 -9 15 -2 32 11 24 4 -3 10 1 13 9 6 16 -19 30 -28 16 -4
-6 -11 -10 -17 -10 -6 0 -7 5 -2 13 5 7 1 4 -8 -6 -14 -15 -18 -16 -18 -4 0
18 -30 32 -31 14 0 -7 -1 -30 -2 -51 -1 -24 -8 -41 -16 -44 -10 -3 -12 0 -8
11 5 14 3 15 -13 5 -11 -7 -21 -17 -23 -23 -3 -5 -3 2 -1 18 2 15 2 27 -1 27
-2 0 -11 -12 -20 -27 -13 -23 -15 -24 -10 -5 4 12 2 22 -4 22 -5 0 -12 -10
-14 -22 -3 -16 -5 -13 -6 10 -1 22 3 31 10 26 7 -4 10 7 9 32 -3 56 -1 66 9
59 12 -7 21 7 27 40 5 31 5 31 -26 -3z m124 -977 c-13 -33 -13 -35 5 -35 11 0
28 15 41 35 12 19 28 35 36 35 10 0 8 -6 -7 -21 -14 -14 -19 -28 -15 -44 5
-19 3 -22 -13 -18 -15 4 -20 -4 -29 -38 -11 -43 -8 -64 6 -41 5 6 19 13 32 14
22 3 25 -1 22 -24 -3 -27 11 -38 23 -18 7 12 65 53 65 46 0 -3 -16 -21 -37
-41 -30 -29 -33 -35 -17 -36 11 0 13 -3 7 -6 -16 -6 -17 -45 -2 -60 12 -12 4
-33 -12 -33 -6 0 -7 4 -4 10 7 11 -23 60 -37 60 -6 0 -8 -6 -5 -14 6 -15 -29
-53 -39 -43 -4 4 0 9 9 13 9 3 14 14 12 25 -6 30 5 52 20 39 16 -13 28 0 14
17 -16 19 -26 17 -66 -14 -37 -28 -63 -38 -63 -22 0 5 10 9 23 9 15 0 18 3 9
9 -11 6 -9 20 7 69 26 76 26 71 -4 82 -14 5 -25 17 -25 25 0 9 5 13 11 10 5
-4 15 7 21 23 7 17 15 29 19 26 4 -2 1 -20 -7 -39z"/>
<path d="M12940 4665 c-7 -8 -18 -15 -25 -15 -7 0 -18 -7 -25 -15 -10 -12 -10
-15 3 -15 9 0 18 4 21 8 7 11 64 13 71 2 3 -4 -2 -13 -10 -20 -8 -7 -15 -19
-15 -27 0 -8 -5 -11 -11 -8 -7 5 -4 14 7 26 9 10 12 19 6 19 -6 0 -14 -5 -17
-10 -4 -6 -12 -7 -18 -3 -30 19 -94 -20 -77 -47 4 -7 12 -10 17 -7 5 3 15 2
23 -3 9 -6 3 -8 -21 -8 -59 1 -62 -1 -56 -23 4 -15 2 -19 -9 -15 -9 3 -12 1
-9 -4 4 -6 -1 -17 -10 -26 -15 -15 -14 -18 11 -30 22 -12 29 -12 36 -2 5 9 8
8 8 -5 0 -10 5 -15 10 -12 6 3 10 1 10 -4 0 -6 -4 -11 -9 -11 -4 0 -6 -11 -3
-25 2 -14 9 -22 14 -19 6 4 8 -2 3 -15 -9 -28 3 -27 31 4 20 21 21 25 6 23
-24 -4 -17 28 14 61 26 28 30 41 14 41 -5 0 -10 15 -9 33 0 26 9 26 11 0 0 -5
11 -18 24 -30 28 -26 31 -35 8 -26 -17 6 -53 -30 -54 -54 0 -18 27 -16 34 2 3
8 12 12 19 9 15 -5 47 20 47 36 0 5 7 7 16 3 15 -5 15 -7 0 -15 -9 -5 -15 -17
-12 -26 3 -9 1 -35 -4 -57 -6 -30 -8 -33 -9 -14 -2 40 -43 44 -81 9 -30 -28
-39 -50 -20 -50 6 0 10 7 10 15 0 8 7 15 15 15 7 0 19 8 24 18 9 15 10 15 11
-4 0 -22 36 -44 65 -40 10 1 29 16 41 31 13 16 26 26 30 22 4 -4 2 -7 -4 -7
-7 0 -12 -5 -12 -11 0 -7 11 -9 28 -5 15 3 21 3 14 0 -7 -3 -17 -14 -22 -24
-9 -16 -7 -18 15 -14 21 4 25 0 25 -18 0 -19 -2 -20 -10 -8 -9 13 -12 12 -25
-4 -15 -20 -15 -20 -16 0 0 17 -1 17 -9 -2 -10 -26 -30 -40 -30 -22 0 10 -3 9
-9 -2 -7 -10 -4 -18 10 -28 18 -12 22 -12 35 4 10 13 12 14 9 3 -5 -12 1 -14
30 -11 27 3 33 7 25 17 -7 9 -6 16 5 25 8 7 15 19 15 26 0 8 5 14 10 14 6 0
10 -7 10 -15 0 -8 7 -15 15 -15 8 0 15 8 15 18 0 12 2 14 8 4 5 -7 17 -10 28
-6 11 3 15 2 9 -3 -5 -4 -12 -19 -13 -33 -3 -20 -1 -23 9 -12 7 6 22 12 32 12
11 0 26 8 33 18 12 15 12 15 7 -5 -9 -37 12 -26 26 12 8 23 17 33 24 28 7 -4
6 1 -2 10 -20 25 -8 30 17 8 28 -23 27 -27 -2 -35 -18 -4 -25 -15 -29 -43 -8
-46 0 -58 9 -14 5 24 13 33 33 37 26 6 56 48 45 66 -8 12 18 5 34 -9 9 -9 10
-18 2 -32 -15 -28 -12 -35 6 -17 20 21 74 21 74 1 0 -18 17 -20 23 -2 2 6 -9
20 -25 29 -25 16 -27 20 -16 37 13 22 30 19 22 -3 -3 -8 -1 -17 4 -20 5 -3 12
3 15 14 6 24 30 26 51 5 13 -14 16 -12 21 18 6 30 9 33 33 29 l27 -6 -25 -7
-25 -7 22 -7 c13 -4 20 -12 17 -17 -3 -5 -12 -7 -19 -4 -7 2 -16 -2 -19 -10
-4 -11 0 -14 14 -12 12 2 28 -9 44 -31 21 -28 27 -31 32 -17 5 13 9 14 20 5
11 -9 14 -8 15 7 0 11 2 27 4 36 3 15 -3 17 -41 11 -48 -6 -58 2 -19 17 16 6
23 14 19 25 -6 14 17 21 49 16 4 0 7 4 7 9 0 6 5 10 11 10 6 0 8 -9 4 -21 -14
-42 39 -93 60 -59 4 6 11 8 16 5 5 -4 9 -1 9 5 0 6 11 26 25 44 17 22 25 46
25 72 0 21 5 46 11 54 9 12 10 11 6 -7 -3 -13 -1 -23 4 -23 4 0 6 -7 3 -15
-12 -31 7 -14 36 32 17 26 30 43 30 37 0 -10 20 17 20 27 0 13 -41 3 -50 -11
-8 -13 -10 -12 -10 3 0 9 -4 17 -10 17 -5 0 -6 8 -3 18 6 15 5 15 -10 3 -9 -7
-17 -24 -17 -38 0 -13 -4 -22 -8 -19 -5 3 -7 19 -4 36 2 18 0 30 -7 30 -6 0
-11 -8 -12 -17 0 -10 -3 -13 -5 -6 -4 8 -13 9 -29 3 -17 -6 -25 -5 -29 5 -3 9
4 15 22 17 15 2 26 9 25 15 -3 14 18 13 28 0 3 -4 14 3 25 15 10 13 12 17 4
11 -10 -8 -21 -9 -30 -3 -10 6 -11 10 -3 10 7 0 10 7 6 16 -4 12 -11 7 -31
-21 -15 -21 -31 -34 -39 -31 -8 3 -16 -1 -19 -9 -4 -8 -10 -15 -15 -15 -4 0
-6 7 -3 15 4 8 2 15 -4 15 -5 0 -12 -9 -15 -20 -3 -11 -10 -20 -16 -20 -8 0
-7 6 1 20 9 14 9 23 2 30 -8 8 -13 3 -17 -18 -5 -23 -11 -29 -31 -29 -19 0
-26 5 -26 19 0 18 -1 18 -16 4 -8 -9 -22 -16 -30 -16 -8 0 -14 -4 -14 -10 0
-5 -4 -10 -10 -10 -6 0 -9 3 -9 8 4 25 -3 34 -11 15 -6 -16 -18 -23 -35 -23
-31 0 -33 17 -2 23 12 3 -4 4 -35 2 -56 -2 -58 -1 -59 24 -1 21 -2 22 -6 6 -3
-11 -9 -24 -15 -30 -6 -7 -7 -4 -3 6 4 12 0 15 -17 14 -23 -2 -27 -15 -13 -47
4 -11 3 -18 -3 -18 -6 0 -12 10 -14 23 -2 12 -10 22 -18 22 -18 0 -31 16 -23
28 3 5 9 3 14 -4 6 -10 9 -6 9 14 0 34 -12 34 -45 2 -14 -14 -25 -21 -25 -14
0 8 -4 8 -15 -1 -13 -11 -13 -15 -3 -21 11 -7 11 -12 0 -29 -7 -12 -8 -20 -2
-20 6 0 15 11 20 24 14 37 30 42 20 7 -4 -16 -6 -32 -2 -35 6 -6 -13 -9 -40
-7 -12 2 -18 -5 -18 -19 0 -12 -4 -19 -9 -16 -10 6 -25 -43 -16 -52 3 -3 11 0
17 6 7 7 21 11 33 11 16 -1 17 -2 3 -6 -10 -2 -18 -9 -18 -14 0 -5 -9 -9 -20
-9 -11 0 -23 -7 -26 -15 -4 -8 -14 -15 -24 -15 -17 0 -17 2 1 40 10 21 19 45
19 53 0 7 6 19 13 26 10 11 8 11 -10 2 -41 -21 -38 -11 5 18 44 29 47 34 32
60 -6 11 -11 7 -23 -15 -16 -29 -18 -28 -21 11 -1 20 -41 30 -41 10 0 -5 3 -9
8 -8 4 2 7 -2 7 -7 0 -25 -31 -7 -37 21 -4 19 -9 26 -13 19 -4 -7 -13 -9 -19
-6 -6 4 -11 3 -11 -2 0 -5 -13 -7 -30 -4 -24 3 -30 1 -31 -14 0 -15 -2 -16 -7
-4 -7 14 -22 19 -65 23 -9 1 -19 9 -23 19 -3 9 -14 20 -25 23 -10 4 -17 12
-13 18 3 7 -1 4 -9 -5 -17 -22 -31 -23 -23 -3 3 8 4 15 2 15 -2 0 -9 -7 -16
-15z"/>
</g>
</svg>
